<svg 
    class="social-icon"
    id="facebook"
    xmlns:dc="http://purl.org/dc/elements/1.1/"
    xmlns:cc="http://creativecommons.org/ns#"
    xmlns:rdf="http://www.w3.org/1999/02/22-rdf-syntax-ns#"
    xmlns:svg="http://www.w3.org/2000/svg"
    xmlns="http://www.w3.org/2000/svg"
    xml:space="preserve"
    style="enable-background:new 0 0 291.319 291.319;"
    viewBox="0 0 291.319 291.319"
    y="0px"
    x="0px"
    version="1.1">
    <defs id="defs11" />
    <path
    id="path5"
    d="M 145.6582 0 C 65.209203 1.8947806e-014 2.2624264e-016 65.219156 0 145.66016 C -1.8947806e-014 226.10916 65.208203 291.31836 145.6582 291.31836 C 226.1082 291.31836 291.31836 226.11016 291.31836 145.66016 C 291.31836 65.219156 226.1082 2.2627386e-016 145.6582 0 z M 160.09961 72.546875 L 182.16602 72.546875 L 182.16602 100.27734 L 163.39453 100.27734 C 158.34153 100.27734 154.79102 104.55563 154.79102 109.89062 L 154.79102 118.25781 L 181.60156 118.25781 L 177.25977 145.41211 L 154.78125 145.41211 L 154.78125 218.20508 L 127.34375 218.20508 L 127.34375 145.41211 L 109.13672 145.41211 L 109.13672 118.25781 L 127.34375 118.25781 L 127.34375 104.41016 L 127.39844 104.41016 C 127.88144 88.624156 133.36161 73.593484 160.09961 72.646484 L 160.09961 72.546875 z "
    style="fill:#3b5998" />
</svg>