<svg
   style="enable-background:new 0 0 291.32 291.32;"
   viewBox="0 0 291.32 291.32"
   y="0px"
   x="0px"
     class="social-icon"
   id="google-plus"
   version="1.1">
    <path fill="#DD4B39"
       id="google-plus-path"
       d="M 145.66016 0 C 65.547156 1.8947806e-014 0 65.548156 0 145.66016 C 1.8947806e-014 225.77216 65.547156 291.32031 145.66016 291.32031 C 225.77316 291.32031 291.32031 225.77316 291.32031 145.66016 C 291.32031 65.547156 225.77316 0 145.66016 0 z M 111.66992 88.640625 C 119.1062 88.623217 126.62644 90.041078 133.82422 92.857422 L 142.01758 97.410156 L 151.12109 103.7832 L 136.55469 118.34961 L 131.09375 114.70703 C 118.34875 106.51403 100.14064 108.33492 88.306641 120.16992 C 74.650641 133.82592 73.740641 158.40666 88.306641 172.97266 C 101.96264 187.53866 126.54211 187.53866 139.28711 172.97266 C 142.92811 169.33166 146.57047 163.86825 147.48047 158.40625 L 147.48047 156.58594 L 114.70703 156.58594 L 114.70703 138.37891 L 166.59766 138.37891 L 167.50781 142.92969 L 167.50781 155.67578 C 166.59781 167.51078 162.04556 179.34411 153.85156 187.53711 C 132.00356 208.47411 93.768922 208.47595 71.919922 186.62695 C 50.070922 164.77795 50.069125 126.54136 72.828125 104.69336 C 83.582094 93.93939 97.473388 88.673858 111.66992 88.640625 z M 203.01367 121.07812 L 219.40039 121.07812 L 219.40039 137.4668 L 235.78516 137.4668 L 235.78516 153.85352 L 219.40039 153.85352 L 219.40039 170.24023 L 203.01367 170.24023 L 203.01367 153.85352 L 186.62695 153.85352 L 186.62695 137.4668 L 203.01367 137.4668 L 203.01367 121.07812 z " />
</svg>