<svg width="163" height="92" viewBox="0 0 163 92" version="1.1" xmlns="http://www.w3.org/2000/svg" xmlns:xlink="http://www.w3.org/1999/xlink" xmlns:figma="http://www.figma.com/figma/ns">
<title>LOGO</title>
<desc>Created using Figma</desc>
<g id="Canvas" transform="translate(370 303)" figma:type="canvas">
<g id="LOGO" style="mix-blend-mode:normal;" figma:type="frame">
<g id="Drops" style="mix-blend-mode:normal;" figma:type="frame">
<g id="Drop 1" style="mix-blend-mode:normal;" figma:type="vector">
<use xlink:href="#path0_fill" transform="translate(-346.765 -291.708)" fill="url(#paint0_linear)" style="mix-blend-mode:normal;"/>
<use xlink:href="#path1_stroke" transform="translate(-346.765 -291.708)" fill="#840010" style="mix-blend-mode:normal;"/>
</g>
<g id="Drop 2" style="mix-blend-mode:normal;" figma:type="vector">
<use xlink:href="#path2_fill" transform="matrix(0.553569 0.832803 -0.830495 0.557027 -308.355 -305.042)" fill="url(#paint2_linear)" style="mix-blend-mode:normal;"/>
<use xlink:href="#path3_stroke" transform="matrix(0.553569 0.832803 -0.830495 0.557027 -308.355 -305.042)" fill="#840010" style="mix-blend-mode:normal;"/>
</g>
<g id="Drop 3" style="mix-blend-mode:normal;" figma:type="vector">
<use xlink:href="#path4_fill" transform="matrix(-0.110081 0.993923 -0.993813 -0.111064 -263.856 -300.774)" fill="url(#paint4_linear)" style="mix-blend-mode:normal;"/>
<use xlink:href="#path5_stroke" transform="matrix(-0.110081 0.993923 -0.993813 -0.111064 -263.856 -300.774)" fill="#840010" style="mix-blend-mode:normal;"/>
</g>
<g id="Drop 4" style="mix-blend-mode:normal;" figma:type="vector">
<use xlink:href="#path6_fill" transform="matrix(-0.493826 0.869561 -0.867641 -0.497192 -233.574 -289.372)" fill="url(#paint6_linear)" style="mix-blend-mode:normal;"/>
<use xlink:href="#path7_stroke" transform="matrix(-0.493826 0.869561 -0.867641 -0.497192 -233.574 -289.372)" fill="#840010" style="mix-blend-mode:normal;"/>
</g>
<g id="Drop 5" style="mix-blend-mode:normal;" figma:type="vector">
<use xlink:href="#path8_fill" transform="matrix(-0.639887 0.768469 -0.765627 -0.643285 -213.964 -274.479)" fill="url(#paint8_linear)" style="mix-blend-mode:normal;"/>
<use xlink:href="#path9_stroke" transform="matrix(-0.639887 0.768469 -0.765627 -0.643285 -213.964 -274.479)" fill="#840010" style="mix-blend-mode:normal;"/>
</g>
<g id="Drop 6" style="mix-blend-mode:normal;" figma:type="vector">
<use xlink:href="#path10_fill" transform="matrix(-0.723317 0.690516 -0.687257 -0.726414 -207 -257.569)" fill="url(#paint10_linear)" style="mix-blend-mode:normal;"/>
<use xlink:href="#path11_stroke" transform="matrix(-0.723317 0.690516 -0.687257 -0.726414 -207 -257.569)" fill="#840010" style="mix-blend-mode:normal;"/>
</g>
<g id="Drop 7" style="mix-blend-mode:normal;" figma:type="vector">
<use xlink:href="#path12_fill" transform="matrix(-0.860591 0.509297 -0.505905 -0.862589 -212.642 -238.64)" fill="url(#paint12_linear)" style="mix-blend-mode:normal;"/>
<use xlink:href="#path13_stroke" transform="matrix(-0.860591 0.509297 -0.505905 -0.862589 -212.642 -238.64)" fill="#840010" style="mix-blend-mode:normal;"/>
</g>
<g id="Drop 8" style="mix-blend-mode:normal;" figma:type="vector">
<use xlink:href="#path14_fill" transform="matrix(-0.996906 0.0786095 -0.0779094 -0.99696 -233.98 -221.62)" fill="url(#paint14_linear)" style="mix-blend-mode:normal;"/>
<use xlink:href="#path15_stroke" transform="matrix(-0.996906 0.0786095 -0.0779094 -0.99696 -233.98 -221.62)" fill="#840010" style="mix-blend-mode:normal;"/>
</g>
<g id="Drop 9" style="mix-blend-mode:normal;" figma:type="vector">
<use xlink:href="#path16_fill" transform="matrix(-0.930086 -0.367342 0.364489 -0.931208 -261.903 -210.437)" fill="url(#paint16_linear)" style="mix-blend-mode:normal;"/>
<use xlink:href="#path17_stroke" transform="matrix(-0.930086 -0.367342 0.364489 -0.931208 -261.903 -210.437)" fill="#840010" style="mix-blend-mode:normal;"/>
</g>
<g id="Drop 10" style="mix-blend-mode:normal;" figma:type="vector">
<use xlink:href="#path18_fill" transform="matrix(-0.413333 -0.91058 0.90917 -0.416425 -305.612 -209.042)" fill="url(#paint18_linear)" style="mix-blend-mode:normal;"/>
<use xlink:href="#path19_stroke" transform="matrix(-0.413333 -0.91058 0.90917 -0.416425 -305.612 -209.042)" fill="#840010" style="mix-blend-mode:normal;"/>
</g>
<g id="Drop 11" style="mix-blend-mode:normal;" figma:type="vector">
<use xlink:href="#path20_fill" transform="matrix(-0.413333 -0.91058 0.90917 -0.416425 -334.18 -215.375)" fill="url(#paint20_linear)" style="mix-blend-mode:normal;"/>
<use xlink:href="#path21_stroke" transform="matrix(-0.413333 -0.91058 0.90917 -0.416425 -334.18 -215.375)" fill="#840010" style="mix-blend-mode:normal;"/>
</g>
<g id="Drop 12" style="mix-blend-mode:normal;" figma:type="vector">
<use xlink:href="#path22_fill" transform="matrix(-0.1787 -0.983904 0.983618 -0.180263 -359.743 -230.596)" fill="url(#paint22_linear)" style="mix-blend-mode:normal;"/>
<use xlink:href="#path23_stroke" transform="matrix(-0.1787 -0.983904 0.983618 -0.180263 -359.743 -230.596)" fill="#840010" style="mix-blend-mode:normal;"/>
</g>
<g id="Drop 13" style="mix-blend-mode:normal;" figma:type="vector">
<use xlink:href="#path24_fill" transform="matrix(0.0871727 -0.996193 0.996125 0.0879549 -369 -247.29)" fill="url(#paint24_linear)" style="mix-blend-mode:normal;"/>
<use xlink:href="#path25_stroke" transform="matrix(0.0871727 -0.996193 0.996125 0.0879549 -369 -247.29)" fill="#840010" style="mix-blend-mode:normal;"/>
</g>
<g id="Drop 14" style="mix-blend-mode:normal;" figma:type="vector">
<use xlink:href="#path26_fill" transform="matrix(0.383334 -0.92361 0.922379 0.386285 -368.805 -268.505)" fill="url(#paint26_linear)" style="mix-blend-mode:normal;"/>
<use xlink:href="#path27_stroke" transform="matrix(0.383334 -0.92361 0.922379 0.386285 -368.805 -268.505)" fill="#840010" style="mix-blend-mode:normal;"/>
</g>
</g>
<g id="Text" style="mix-blend-mode:normal;" figma:type="frame">
<g id="Multi" style="mix-blend-mode:normal;" figma:type="vector">
<use xlink:href="#path28_fill" transform="matrix(0.938368 -0.345637 0.342905 0.93937 -330.565 -260.319)" fill="#CCCCCC" style="mix-blend-mode:normal;"/>
<use xlink:href="#path29_fill" transform="matrix(0.938368 -0.345637 0.342905 0.93937 -330.565 -260.319)" fill="#CCCCCC" style="mix-blend-mode:normal;"/>
<use xlink:href="#path30_fill" transform="matrix(0.938368 -0.345637 0.342905 0.93937 -330.565 -260.319)" fill="#CCCCCC" style="mix-blend-mode:normal;"/>
<use xlink:href="#path31_fill" transform="matrix(0.938368 -0.345637 0.342905 0.93937 -330.565 -260.319)" fill="#CCCCCC" style="mix-blend-mode:normal;"/>
<use xlink:href="#path32_fill" transform="matrix(0.938368 -0.345637 0.342905 0.93937 -330.565 -260.319)" fill="#CCCCCC" style="mix-blend-mode:normal;"/>
</g>
<g id="Clean, Inc." style="mix-blend-mode:normal;" figma:type="vector">
<use xlink:href="#path33_fill" transform="matrix(0.938368 -0.345637 0.342905 0.93937 -311.55 -245.637)" fill="#CCCCCC" style="mix-blend-mode:normal;"/>
<use xlink:href="#path34_fill" transform="matrix(0.938368 -0.345637 0.342905 0.93937 -311.55 -245.637)" fill="#CCCCCC" style="mix-blend-mode:normal;"/>
<use xlink:href="#path35_fill" transform="matrix(0.938368 -0.345637 0.342905 0.93937 -311.55 -245.637)" fill="#CCCCCC" style="mix-blend-mode:normal;"/>
<use xlink:href="#path36_fill" transform="matrix(0.938368 -0.345637 0.342905 0.93937 -311.55 -245.637)" fill="#CCCCCC" style="mix-blend-mode:normal;"/>
<use xlink:href="#path37_fill" transform="matrix(0.938368 -0.345637 0.342905 0.93937 -311.55 -245.637)" fill="#CCCCCC" style="mix-blend-mode:normal;"/>
<use xlink:href="#path38_fill" transform="matrix(0.938368 -0.345637 0.342905 0.93937 -311.55 -245.637)" fill="#CCCCCC" style="mix-blend-mode:normal;"/>
<use xlink:href="#path39_fill" transform="matrix(0.938368 -0.345637 0.342905 0.93937 -311.55 -245.637)" fill="#CCCCCC" style="mix-blend-mode:normal;"/>
<use xlink:href="#path40_fill" transform="matrix(0.938368 -0.345637 0.342905 0.93937 -311.55 -245.637)" fill="#CCCCCC" style="mix-blend-mode:normal;"/>
<use xlink:href="#path41_fill" transform="matrix(0.938368 -0.345637 0.342905 0.93937 -311.55 -245.637)" fill="#CCCCCC" style="mix-blend-mode:normal;"/>
<use xlink:href="#path42_fill" transform="matrix(0.938368 -0.345637 0.342905 0.93937 -311.55 -245.637)" fill="#CCCCCC" style="mix-blend-mode:normal;"/>
</g>
</g>
</g>
</g>
<defs>
<linearGradient id="paint0_linear" x1="0" y1="0" x2="1" y2="0" gradientUnits="userSpaceOnUse" gradientTransform="matrix(9.00349 21.4837 -15.9087 6.72737 13.0102 -3.36368)">
<stop offset="0" stop-color="#BACBC5"/>
<stop offset="0.428831" stop-color="#DADEDD"/>
<stop offset="0.538939" stop-color="#FBF3F7"/>
<stop offset="0.665005" stop-color="#D6E3DB"/>
<stop offset="1" stop-color="#C0DACB"/>
</linearGradient>
<linearGradient id="paint2_linear" x1="0" y1="0" x2="1" y2="0" gradientUnits="userSpaceOnUse" gradientTransform="matrix(20.2925 8.29239 -6.17886 15.0684 2.57069 0.880154)">
<stop offset="0" stop-color="#BACBC5"/>
<stop offset="0.398246" stop-color="#DADEDD"/>
<stop offset="0.538939" stop-color="#FBF3F7"/>
<stop offset="0.665005" stop-color="#D6E3DB"/>
<stop offset="1" stop-color="#C0DACB"/>
</linearGradient>
<linearGradient id="paint4_linear" x1="0" y1="0" x2="1" y2="0" gradientUnits="userSpaceOnUse" gradientTransform="matrix(15.0181 22.0788 -13.3732 9.017 8.6286 -1.04956)">
<stop offset="0" stop-color="#FFF7F7"/>
<stop offset="0.398246" stop-color="#F7FFF7"/>
<stop offset="0.538939" stop-color="#FBF3F7"/>
<stop offset="0.665005" stop-color="#EBEBEB"/>
<stop offset="1" stop-color="#DFCAC5"/>
</linearGradient>
<linearGradient id="paint6_linear" x1="0" y1="0" x2="1" y2="0" gradientUnits="userSpaceOnUse" gradientTransform="matrix(15.0023 22.102 -13.3592 9.0265 13.956 -0.126025)">
<stop offset="0" stop-color="#FFF7F7"/>
<stop offset="0.398246" stop-color="#F7FFF7"/>
<stop offset="0.538939" stop-color="#FBF3F7"/>
<stop offset="0.665005" stop-color="#EBEBEB"/>
<stop offset="1" stop-color="#DFCAC5"/>
</linearGradient>
<linearGradient id="paint8_linear" x1="0" y1="0" x2="1" y2="0" gradientUnits="userSpaceOnUse" gradientTransform="matrix(19.8263 23.5716 -14.2262 11.9468 9.72703 -2.69879)">
<stop offset="0" stop-color="#EFE7E7"/>
<stop offset="0.398246" stop-color="#DEDEE7"/>
<stop offset="0.538939" stop-color="#DEDEDE"/>
<stop offset="0.665005" stop-color="#D6DADA"/>
<stop offset="1" stop-color="#D2CEC1"/>
</linearGradient>
<linearGradient id="paint10_linear" x1="0" y1="0" x2="1" y2="0" gradientUnits="userSpaceOnUse" gradientTransform="matrix(19.1459 25.9275 -15.6321 11.5486 9.04374 -3.50055)">
<stop offset="0" stop-color="#DEDEE7"/>
<stop offset="0.398246" stop-color="#DEDEDE"/>
<stop offset="0.538939" stop-color="#DEDEDE"/>
<stop offset="0.665005" stop-color="#D6DADA"/>
<stop offset="1" stop-color="#FFF8F7"/>
</linearGradient>
<linearGradient id="paint12_linear" x1="0" y1="0" x2="1" y2="0" gradientUnits="userSpaceOnUse" gradientTransform="matrix(16.4736 22.5285 -13.5562 9.95614 7.97745 -2.51055)">
<stop offset="0" stop-color="#CCD6D0"/>
<stop offset="0.398246" stop-color="#E7EFEF"/>
<stop offset="0.538939" stop-color="#FFF7F7"/>
<stop offset="0.665005" stop-color="#FEFFFE"/>
<stop offset="1" stop-color="#CCD6D0"/>
</linearGradient>
<linearGradient id="paint14_linear" x1="0" y1="0" x2="1" y2="0" gradientUnits="userSpaceOnUse" gradientTransform="matrix(12.9578 16.3064 -9.78998 7.84907 7.24298 -0.927862)">
<stop offset="0" stop-color="#CEC6C6"/>
<stop offset="0.398246" stop-color="#FFFDFD"/>
<stop offset="0.538939" stop-color="#F7EFEF"/>
<stop offset="0.665005" stop-color="#CCD6D0"/>
<stop offset="1" stop-color="#C6CBC3"/>
</linearGradient>
<linearGradient id="paint16_linear" x1="0" y1="0" x2="1" y2="0" gradientUnits="userSpaceOnUse" gradientTransform="matrix(12.9653 16.297 -9.79563 7.84458 5.2 -1.8962)">
<stop offset="0" stop-color="#CEC6C6"/>
<stop offset="0.398246" stop-color="#FFFDFD"/>
<stop offset="0.538939" stop-color="#F7EFEF"/>
<stop offset="0.665005" stop-color="#CCD6D0"/>
<stop offset="1" stop-color="#C6CBC3"/>
</linearGradient>
<linearGradient id="paint18_linear" x1="0" y1="0" x2="1" y2="0" gradientUnits="userSpaceOnUse" gradientTransform="matrix(6.68699 20.2338 -12.2381 4.02072 10.9457 1.80036)">
<stop offset="0" stop-color="#CEC6C6"/>
<stop offset="0.398246" stop-color="#EAEEEE"/>
<stop offset="0.538939" stop-color="#F7F7F7"/>
<stop offset="0.665005" stop-color="#FFF7FF"/>
<stop offset="1" stop-color="#EFF7E7"/>
</linearGradient>
<linearGradient id="paint20_linear" x1="0" y1="0" x2="1" y2="0" gradientUnits="userSpaceOnUse" gradientTransform="matrix(-1.57811 25.9181 -15.6762 -0.948882 14.5104 3.76342)">
<stop offset="0" stop-color="#CDD3CF"/>
<stop offset="0.398246" stop-color="#E7E8E8"/>
<stop offset="0.538939" stop-color="#F0EAEA"/>
<stop offset="0.665005" stop-color="#EEEBED"/>
<stop offset="1" stop-color="#FBF0E7"/>
</linearGradient>
<linearGradient id="paint22_linear" x1="0" y1="0" x2="1" y2="0" gradientUnits="userSpaceOnUse" gradientTransform="matrix(-2.10221 29.4738 -17.8493 -1.26242 14.0702 3.80267)">
<stop offset="0" stop-color="#CDD3CF"/>
<stop offset="0.398246" stop-color="#E7E8E8"/>
<stop offset="0.538939" stop-color="#F0EAEA"/>
<stop offset="0.665005" stop-color="#EEEBED"/>
<stop offset="1" stop-color="#FBF0E7"/>
</linearGradient>
<linearGradient id="paint24_linear" x1="0" y1="0" x2="1" y2="0" gradientUnits="userSpaceOnUse" gradientTransform="matrix(-2.10244 29.4706 -17.8512 -1.26228 14.2911 4.68816)">
<stop offset="0" stop-color="#CDD3CF"/>
<stop offset="0.398246" stop-color="#E7E8E8"/>
<stop offset="0.538939" stop-color="#F0EAEA"/>
<stop offset="0.665005" stop-color="#EEEBED"/>
<stop offset="1" stop-color="#FBF0E7"/>
</linearGradient>
<linearGradient id="paint26_linear" x1="0" y1="0" x2="1" y2="0" gradientUnits="userSpaceOnUse" gradientTransform="matrix(-2.00895 25.7924 -15.6035 -1.20768 12.3461 2.17382)">
<stop offset="0" stop-color="#D6D6D6"/>
<stop offset="0.398246" stop-color="#F7EFF7"/>
<stop offset="0.538939" stop-color="#E8E7E7"/>
<stop offset="0.665005" stop-color="#E5E5E5"/>
<stop offset="1" stop-color="#DECED6"/>
</linearGradient>
<path id="path0_fill" d="M 14.6803 21.4837C 7.22913 17.4295 -5.81041 4.95484 2.88262 0.588721C 17.7849 -2.84181 16.8535 9.32096 14.6803 21.4837Z"/>
<path id="path1_stroke" d="M 14.6803 21.4837L 14.4413 21.9229L 15.0505 22.2544L 15.1725 21.5717L 14.6803 21.4837ZM 2.88262 0.588721L 2.77045 0.101465L 2.7119 0.114944L 2.65821 0.141911L 2.88262 0.588721ZM 14.9193 21.0445C 11.2323 19.0407 6.1924 14.9778 3.12848 10.8546C 1.59496 8.7943 0.617049 6.79487 0.509822 5.09393C 0.406996 3.4628 1.09846 2.04435 3.10703 1.03553L 2.65821 0.141911C 0.32026 1.31616 -0.618218 3.09432 -0.488197 5.15685C -0.362576 7.14957 0.755157 9.34084 2.32629 11.4517C 5.47167 15.671 10.6771 19.8725 14.4413 21.9229L 14.9193 21.0445ZM 2.99478 1.07598C 6.66949 0.230057 9.28451 0.366574 11.1212 1.15535C 12.9352 1.93437 14.0647 3.38238 14.7098 5.34487C 16.0218 9.33635 15.2794 15.288 14.1881 21.3958L 15.1725 21.5717C 16.2544 15.5166 17.0643 9.30557 15.6598 5.0326C 14.9466 2.86288 13.6506 1.15324 11.5158 0.236496C 9.40383 -0.670498 6.54691 -0.767879 2.77045 0.101465L 2.99478 1.07598Z"/>
<path id="path2_fill" d="M 15.7117 19.9804C 4.48277 19.9724 -5.01113 9.53206 2.94083 2.1222C 10.8928 -5.28766 16.4976 8.16784 15.7117 19.9804Z"/>
<path id="path3_stroke" d="M 15.7117 19.9804L 15.7113 20.4804L 16.1795 20.4808L 16.2106 20.0136L 15.7117 19.9804ZM 2.94083 2.1222L 2.59997 1.7564L 2.59997 1.7564L 2.94083 2.1222ZM 15.712 19.4804C 10.2392 19.4765 5.20785 16.926 2.52639 13.5178C 1.18907 11.8181 0.453287 9.92887 0.502306 8.0505C 0.551073 6.18182 1.37781 4.2621 3.2817 2.488L 2.59997 1.7564C 0.527875 3.68723 -0.44064 5.85125 -0.497353 8.02441C -0.553813 10.1879 0.294695 12.2986 1.74047 14.1362C 4.6252 17.8027 9.95521 20.4763 15.7113 20.4804L 15.712 19.4804ZM 3.2817 2.488C 5.19477 0.70535 6.86947 0.261062 8.28134 0.610705C 9.72419 0.968022 11.0538 2.19091 12.1717 4.09595C 14.404 7.89999 15.6012 14.1095 15.2128 19.9473L 16.2106 20.0136C 16.6081 14.0388 15.3958 7.61424 13.0342 3.58984C 11.8552 1.58067 10.3417 0.0907379 8.52172 -0.359972C 6.67076 -0.818357 4.66288 -0.165884 2.59997 1.7564L 3.2817 2.488Z"/>
<path id="path4_fill" d="M 18.8054 26.5747C 7.48953 25.0247 -4.94481 9.22013 2.01052 1.26456C 8.13124 -5.73637 15.2027 18.2348 18.8054 26.5747Z"/>
<path id="path5_stroke" d="M 18.8054 26.5747L 18.7376 27.0701L 19.6161 27.1904L 19.2644 26.3765L 18.8054 26.5747ZM 2.01052 1.26456L 1.6341 0.935462L 1.6341 0.935462L 2.01052 1.26456ZM 18.8733 26.0794C 13.3914 25.3285 7.5638 21.0959 3.96378 16.032C 0.341148 10.9363 -0.846332 5.29191 2.38695 1.59366L 1.6341 0.935462C -2.08795 5.19278 -0.53593 11.4285 3.14875 16.6114C 6.85603 21.8262 12.9035 26.271 18.7376 27.0701L 18.8733 26.0794ZM 2.38695 1.59366C 3.08983 0.78969 3.74264 0.498681 4.34062 0.500005C 4.95595 0.501366 5.63505 0.811513 6.37958 1.46799C 7.87746 2.78871 9.41161 5.30686 10.9022 8.38476C 13.8721 14.5148 16.5367 22.5825 18.3464 26.773L 19.2644 26.3765C 17.4714 22.227 14.7989 14.1392 11.8022 7.94889C 10.3095 4.86662 8.703 2.1834 7.04094 0.717919C 6.20551 -0.0187082 5.29983 -0.497875 4.34283 -0.499993C 3.36848 -0.502149 2.46139 -0.0108039 1.6341 0.935462L 2.38695 1.59366Z"/>
<path id="path6_fill" d="M 24.1222 27.5274C 12.8181 25.9757 -3.77884 6.31421 0.770944 1.09919C 6.40402 -5.3575 18.8739 18.3484 24.1222 27.5274Z"/>
<path id="path7_stroke" d="M 24.1222 27.5274L 24.0542 28.0228L 25.0603 28.1609L 24.5562 27.2792L 24.1222 27.5274ZM 0.770944 1.09919L 0.394178 0.770485L 0.394178 0.770485L 0.770944 1.09919ZM 24.1902 27.032C 21.4757 26.6595 18.395 25.1885 15.3507 23.0666C 12.3037 20.9442 9.35729 18.2198 6.87919 15.3596C 4.40216 12.5032 2.44363 9.57454 1.37146 7.01681C 0.837341 5.74864 0.539299 4.6338 0.504009 3.64897C 0.466841 2.69411 0.687212 1.95572 1.14771 1.4279L 0.394178 0.770485C -0.282771 1.54641 -0.539011 2.56324 -0.495235 3.68787C -0.449581 4.78252 -0.109123 6.07145 0.449532 7.40416C 1.56291 10.0482 3.60704 13.1097 6.12353 16.0145C 8.63895 18.9155 11.6769 21.7234 14.7789 23.8869C 17.8836 26.0509 21.1166 27.6195 24.0542 28.0228L 24.1902 27.032ZM 1.14771 1.4279C 1.76002 0.726062 2.42634 0.464638 3.14933 0.503787C 3.90436 0.544671 4.78172 0.917469 5.76757 1.6209C 7.73909 3.02763 9.95003 5.61396 12.184 8.74059C 16.6441 14.9811 21.0609 23.1806 23.6881 27.7756L 24.5562 27.2792C 21.9352 22.6952 17.4928 14.4522 12.9977 8.15923C 10.754 5.0191 8.46328 2.3159 6.3484 0.806871C 5.29104 0.0524217 4.22902 -0.439214 3.2034 -0.494751C 2.14573 -0.552022 1.19014 -0.141854 0.394178 0.770485L 1.14771 1.4279Z"/>
<path id="path8_fill" d="M 24.7079 29.8202C 11.9693 24.652 -3.0559 7.18758 0.541853 0.951338C 6.18582 -5.52753 22.7276 22.9597 24.7079 29.8202Z"/>
<path id="path9_stroke" d="M 24.7079 29.8202L 24.5199 30.2835L 25.4738 30.6705L 25.1883 29.6815L 24.7079 29.8202ZM 0.541853 0.951338L 0.164843 0.622912L 0.132991 0.659476L 0.108758 0.701481L 0.541853 0.951338ZM 24.8959 29.3568C 18.6235 26.8121 11.7449 21.2142 6.88051 15.4634C 4.44934 12.5905 2.55079 9.72456 1.46888 7.17084C 0.380299 4.60679 0.199873 2.54469 0.974948 1.20119L 0.108758 0.701481C -0.915044 2.47611 -0.566471 4.93565 0.548397 7.56163C 1.66993 10.1979 3.64928 13.1904 6.11701 16.1092C 11.0505 21.9417 18.0538 27.6601 24.5199 30.2835L 24.8959 29.3568ZM 0.918863 1.27976C 1.50155 0.610879 2.19772 0.398288 3.03425 0.542953C 3.91042 0.694474 4.94908 1.24374 6.11141 2.1572C 8.44795 3.99004 11.0588 7.10441 13.591 10.6729C 16.1251 14.2429 18.5392 18.2189 20.4507 21.7425C 22.3666 25.2738 23.7486 28.2998 24.2275 29.9588L 25.1883 29.6815C 24.677 27.9103 23.2487 24.8027 21.3297 21.2656C 19.4063 17.7208 16.9608 13.6936 14.4065 10.0941C 11.8502 6.49309 9.1436 3.27166 6.72931 1.37094C 5.51623 0.41761 4.32113 -0.249343 3.20465 -0.442421C 2.04853 -0.642355 0.993146 -0.32792 0.164843 0.622912L 0.918863 1.27976Z"/>
<path id="path10_fill" d="M 20.847 29.51C 13.0207 24.6464 -3.74409 6.13412 0.754246 0.965067C 6.39532 -5.51712 23.1949 22.5215 20.847 29.51Z"/>
<path id="path11_stroke" d="M 20.847 29.51L 20.5831 29.9346L 21.1198 30.2681L 21.321 29.6692L 20.847 29.51ZM 0.754246 0.965067L 1.13142 1.2933L 0.754246 0.965067ZM 21.1109 29.0853C 17.2653 26.6954 11.1593 20.8998 6.57252 15.0437C 4.28209 12.1203 2.39888 9.2267 1.35673 6.72907C 0.837666 5.49049 0.54238 4.40997 0.504636 3.45485C 0.465158 2.53137 0.676707 1.81582 1.13142 1.2933L 0.37707 0.636832C -0.292799 1.40658 -0.54136 2.40026 -0.494452 3.49756C -0.445809 4.56321 -0.108211 5.81501 0.434134 7.11484C 1.5148 9.69404 3.46849 12.7017 5.78526 15.6604C 10.4129 21.5686 16.6024 27.4609 20.5831 29.9346L 21.1109 29.0853ZM 1.13142 1.2933C 1.71541 0.622236 2.41803 0.403065 3.25412 0.537529C 4.12743 0.677979 5.15767 1.21023 6.29542 2.1014C 8.56389 3.87825 11.084 6.94117 13.3776 10.4591C 15.6705 13.9746 17.702 17.8843 19.0239 21.3675C 19.684 23.1048 20.1565 24.7019 20.3964 26.0962C 20.6371 27.4902 20.6271 28.5945 20.373 29.3507L 21.321 29.6692C 21.6539 28.6783 21.6325 27.3776 21.3818 25.926C 21.1304 24.4747 20.6316 22.7853 19.9587 21.0125C 18.6147 17.4756 16.534 13.4704 14.2153 9.91294C 11.8975 6.35793 9.30668 3.18982 6.91205 1.31416C 5.71825 0.379073 4.52889 -0.270306 3.4129 -0.449784C 2.2597 -0.63525 1.20335 -0.312649 0.37707 0.636832L 1.13142 1.2933Z"/>
<path id="path12_fill" d="M 18.1131 26.702C 10.1744 20.5686 -3.27149 5.76045 0.726342 1.15755C 8.20618 -5.54011 21.034 18.6649 18.1131 26.702Z"/>
<path id="path13_stroke" d="M 18.1131 26.702L 17.8074 27.0977L 18.3491 27.5163L 18.583 26.8728L 18.1131 26.702ZM 0.726342 1.15755L 0.392801 0.785059L 0.369425 0.805991L 0.348849 0.829681L 0.726342 1.15755ZM 18.4187 26.3064C 14.472 23.2582 9.1721 18.0687 5.3408 13.0523C 3.42725 10.5488 1.90946 8.1356 1.10653 6.04823C 0.295216 3.94556 0.301331 2.40938 1.10384 1.48542L 0.348849 0.829681C -0.847564 2.20717 -0.659906 4.2481 0.173571 6.40821C 1.01543 8.5836 2.60568 11.1189 4.5462 13.6594C 8.42304 18.7312 13.8154 24.0124 17.8074 27.0977L 18.4187 26.3064ZM 1.05988 1.53004C 1.90427 0.77396 2.79883 0.470387 3.72354 0.502259C 4.66329 0.534649 5.67784 0.915711 6.73455 1.61081C 8.85406 3.005 11.021 5.58215 12.8926 8.66379C 14.7647 11.7442 16.3006 15.2506 17.1985 18.5111C 18.1012 21.7839 18.3178 24.6749 17.6431 26.5313L 18.583 26.8728C 19.3688 24.7106 19.0773 21.562 18.1625 18.2452C 17.243 14.9162 15.652 11.283 13.7473 8.14469C 11.8421 5.00764 9.58223 2.28703 7.2841 0.775348C 6.132 0.0175026 4.94003 -0.456406 3.75799 -0.497147C 2.5609 -0.538407 1.41838 -0.133272 0.392801 0.785059L 1.05988 1.53004Z"/>
<path id="path14_fill" d="M 16.3981 21.2661C 7.09453 16.7787 -3.98697 7.14606 1.42703 1.62943C 12.5825 -5.6242 19.3157 13.2198 16.3981 21.2661Z"/>
<path id="path15_stroke" d="M 16.3981 21.2661L 16.1809 21.7164L 16.6795 21.9569L 16.8682 21.4365L 16.3981 21.2661ZM 1.42703 1.62943L 1.15446 1.21026L 1.10854 1.24012L 1.07017 1.27922L 1.42703 1.62943ZM 16.6153 20.8157C 11.9981 18.5904 6.98149 15.118 3.76696 11.5013C 2.16321 9.69952 1.05515 7.91093 0.659907 6.27643C 0.272407 4.67395 0.565851 3.22077 1.78388 1.97965L 1.07017 1.27922C -0.418798 2.79641 -0.770414 4.61605 -0.31208 6.51147C 0.138513 8.37487 1.36717 10.3093 3.02 12.1662C 6.31863 15.8667 11.4946 19.4544 16.1809 21.7164L 16.6153 20.8157ZM 1.69959 2.04861C 4.37385 0.309726 6.71528 0.167854 8.69511 0.969483C 10.7053 1.78342 12.4284 3.60479 13.7545 5.95594C 16.4181 10.6785 17.3236 17.2471 15.9281 21.0956L 16.8682 21.4365C 18.3903 17.2388 17.3879 10.3623 14.6255 5.46466C 13.2386 3.00573 11.369 0.973262 9.07041 0.0425799C 6.74146 -0.900408 4.05794 -0.677672 1.15446 1.21026L 1.69959 2.04861Z"/>
<path id="path16_fill" d="M 14.3604 20.285C 5.05147 15.8002 -5.61524 7.77307 3.43145 1.89739C 15.405 -5.87924 17.2797 12.2434 14.3604 20.285Z"/>
<path id="path17_stroke" d="M 14.3604 20.285L 14.1434 20.7355L 14.6417 20.9755L 14.8304 20.4556L 14.3604 20.285ZM 3.43145 1.89739L 3.15911 1.47807L 3.43145 1.89739ZM 14.5775 19.8346C 9.93918 17.6 5.02753 14.5106 2.39967 11.2963C 1.08644 9.69002 0.399454 8.12103 0.511988 6.6569C 0.622737 5.21599 1.52093 3.73444 3.70379 2.31671L 3.15911 1.47807C 0.818623 2.99818 -0.342352 4.7234 -0.485071 6.58026C -0.626005 8.4139 0.239249 10.2337 1.62548 11.9293C 4.39654 15.3187 9.47274 18.4853 14.1434 20.7355L 14.5775 19.8346ZM 3.70379 2.31671C 6.62697 0.418152 8.81233 0.177049 10.4141 0.822591C 12.0345 1.47569 13.2296 3.10265 14.0089 5.32482C 15.5684 9.77176 15.3137 16.1938 13.8905 20.1144L 14.8304 20.4556C 16.3265 16.3346 16.594 9.67453 14.9526 4.99389C 14.1314 2.65229 12.7952 0.70411 10.7879 -0.104914C 8.76177 -0.92149 6.2227 -0.511687 3.15911 1.47807L 3.70379 2.31671Z"/>
<path id="path18_fill" d="M 12.61 26.0003C 2.86904 21.5718 -5.03125 8.89054 3.90112 1.34106C 15.0762 -5.87179 15.5384 17.9837 12.61 26.0003Z"/>
<path id="path19_stroke" d="M 12.61 26.0003L 12.4031 26.4555L 12.8944 26.6788L 13.0797 26.1718L 12.61 26.0003ZM 3.90112 1.34106L 3.62998 0.920961L 3.60294 0.93841L 3.57837 0.95918L 3.90112 1.34106ZM 12.8169 25.5451C 8.04805 23.3771 3.73219 19.1843 1.70991 14.6378C 0.692408 12.3587 0.260402 10.0686 0.617697 7.8336C 0.961309 5.63936 2.07732 3.53716 4.22388 1.72293L 3.57837 0.95918C 1.25874 2.91969 0.0126456 5.23371 -0.370263 7.67889C -0.73949 10.0833 -0.262434 12.6558 0.796216 15.0442C 2.92623 19.8329 7.43099 24.195 12.4031 26.4555L 12.8169 25.5451ZM 4.17227 1.76115C 5.51966 0.891494 6.65928 0.520661 7.6143 0.500845C 8.59038 0.470459 9.34401 0.777405 10.0625 1.40314C 11.4958 2.634 12.4843 5.04359 13.0531 8.05252C 14.1857 14.044 13.5686 21.9188 12.1404 25.8287L 13.0797 26.1718C 14.5798 22.0652 15.1958 14.004 14.0357 7.86678C 13.4581 4.81136 12.4187 2.10845 10.7139 0.644483C 9.86331 -0.0771864 8.77029 -0.513225 7.59355 -0.49894C 6.39574 -0.474086 5.07637 -0.0125946 3.62998 0.920961L 4.17227 1.76115Z"/>
<path id="path20_fill" d="M 5.6392 31.564C 0.069796 25.2155 -3.59845 8.5226 5.61747 1.10203C 16.7926 -6.11082 9.02343 24.1638 5.6392 31.564Z"/>
<path id="path21_stroke" d="M 5.6392 31.564L 5.26334 31.8937L 5.77269 32.4743L 6.09391 31.7719L 5.6392 31.564ZM 5.61747 1.10203L 5.34632 0.68193L 5.3243 0.696143L 5.30389 0.712579L 5.61747 1.10203ZM 6.01506 31.2342C 3.31658 28.1583 1.03711 22.508 0.582314 16.696C 0.127646 10.8858 1.50386 5.05621 5.93105 1.49147L 5.30389 0.712579C 0.515161 4.56842 -0.882465 10.7956 -0.414639 16.774C 0.0530568 22.7508 2.39242 28.6212 5.26334 31.8937L 6.01506 31.2342ZM 5.88861 1.52212C 7.24914 0.643986 8.21475 0.410261 8.87772 0.528741C 9.49907 0.639783 9.9907 1.08931 10.3482 1.9668C 11.0834 3.77122 11.077 6.98837 10.5921 10.7899C 9.62908 18.3395 6.85265 27.7083 5.18449 31.356L 6.09391 31.7719C 7.80998 28.0195 10.6102 18.5509 11.5841 10.9164C 12.0676 7.12581 12.1196 3.6642 11.2743 1.58948C 10.8416 0.527402 10.1332 -0.262737 9.05365 -0.455662C 8.01573 -0.64115 6.77958 -0.243147 5.34632 0.68193L 5.88861 1.52212Z"/>
<path id="path22_fill" d="M 3.00626 35.6089C -1.81475 29.0516 -0.543939 3.08472 4.72901 0.255059C 14.8831 -3.26599 5.79821 30.7504 3.00626 35.6089Z"/>
<path id="path23_stroke" d="M 3.00626 35.6089L 2.60341 35.9051L 3.05768 36.523L 3.43977 35.858L 3.00626 35.6089ZM 4.72901 0.255059L 4.5652 -0.217345L 4.52763 -0.204316L 4.49258 -0.185512L 4.72901 0.255059ZM 3.4091 35.3127C 2.28196 33.7797 1.46974 31.0342 0.995229 27.6471C 0.521798 24.2728 0.395284 20.3707 0.581804 16.5585C 0.767401 12.7473 1.26227 9.08384 2.04036 6.17999C 2.42687 4.73369 2.86998 3.51501 3.38451 2.55294C 3.8957 1.5945 4.43374 0.980956 4.96544 0.69563L 4.49258 -0.185512C 3.70604 0.236577 3.05091 1.05348 2.50216 2.08234C 1.95675 3.10757 1.47314 4.43302 1.07434 5.92149C 0.281794 8.88719 -0.228407 12.6558 -0.417006 16.5097C -0.604683 20.3626 -0.47452 24.3586 0.00490017 27.7858C 0.483236 31.2002 1.32004 34.1595 2.60341 35.9051L 3.4091 35.3127ZM 4.89282 0.727463C 6.04702 0.327232 6.81708 0.488344 7.36338 0.946924C 7.94917 1.43867 8.38641 2.35885 8.64522 3.70483C 9.16039 6.38403 8.90268 10.3846 8.22838 14.7127C 7.55619 19.0295 6.48292 23.5972 5.40029 27.4032C 4.31306 31.226 3.23588 34.2058 2.57274 35.3598L 3.43977 35.858C 4.17261 34.5828 5.27803 31.4886 6.36214 27.6768C 7.45086 23.8484 8.53769 19.221 9.21646 14.8666C 9.89311 10.5234 10.1772 6.37641 9.62723 3.51601C 9.35345 2.09219 8.85635 0.894565 8.00632 0.18101C 7.11678 -0.565706 5.94953 -0.697376 4.5652 -0.217345L 4.89282 0.727463Z"/>
<path id="path24_fill" d="M 4.00775 36.3968C 0.419929 27.6723 -2.95803 2.72233 4.25737 0.220864C 13.0664 -2.8331 8.78037 26.629 4.00775 36.3968Z"/>
<path id="path25_stroke" d="M 4.00775 36.3968L 3.54532 36.587L 3.96851 37.6161L 4.45699 36.6163L 4.00775 36.3968ZM 4.25737 0.220864L 4.42115 0.693279L 4.42115 0.693279L 4.25737 0.220864ZM 4.47017 36.2066C 2.70411 31.9121 0.969835 23.5531 0.580696 15.9496C 0.385819 12.1518 0.523609 8.59434 1.15742 5.81248C 1.79365 3.01041 2.88272 1.22663 4.42115 0.693279L 4.09359 -0.251552C 2.02431 0.465836 0.829854 2.73885 0.18224 5.59106C -0.467795 8.4635 -0.614163 12.1578 -0.417997 16.0007C -0.0250494 23.6787 1.72356 32.157 3.54532 36.587L 4.47017 36.2066ZM 4.42115 0.693279C 5.39666 0.355082 6.11365 0.483314 6.67334 0.899181C 7.26549 1.33916 7.75983 2.15846 8.12781 3.358C 8.86222 5.75206 9.00938 9.37782 8.72686 13.4662C 8.16247 21.6339 5.90658 31.3716 3.55851 36.1773L 4.45699 36.6163C 6.88153 31.6541 9.15497 21.7769 9.72449 13.5351C 10.0089 9.41875 9.87418 5.64111 9.08384 3.06472C 8.68943 1.77903 8.11068 0.721336 7.26975 0.0965039C 6.39638 -0.552443 5.32033 -0.676846 4.09359 -0.251551L 4.42115 0.693279Z"/>
<path id="path26_fill" d="M 3.27956 30.2334C -0.305996 21.5033 -2.42468 -1.36802 4.92757 0.0643285C 15.9559 2.21285 8.04918 20.4594 3.27956 30.2334Z"/>
<path id="path27_stroke" d="M 3.27956 30.2334L 2.81705 30.4234L 3.24032 31.454L 3.72892 30.4527L 3.27956 30.2334ZM 4.92757 0.0643285L 4.83196 0.555102L 4.83196 0.555102L 4.92757 0.0643285ZM 3.74207 30.0435C 1.97963 25.7523 0.560302 17.9184 0.501869 11.3335C 0.472619 8.03735 0.785714 5.11383 1.53232 3.12179C 1.90532 2.12656 2.36958 1.41029 2.90904 0.983451C 3.42882 0.572183 4.0504 0.402839 4.83196 0.555102L 5.02318 -0.426445C 3.96669 -0.632269 3.04616 -0.40021 2.28855 0.19924C 1.55061 0.783122 1.00218 1.68689 0.595924 2.77083C -0.215993 4.93714 -0.527676 8.00852 -0.498092 11.3424C -0.438856 18.0176 0.99394 25.9845 2.81705 30.4234L 3.74207 30.0435ZM 4.83196 0.555102C 7.4137 1.05807 8.84272 2.47591 9.51993 4.4709C 10.213 6.51254 10.1285 9.19658 9.53728 12.1925C 8.35728 18.1888 5.21187 25.1337 2.83021 30.0142L 3.72892 30.4527C 6.11687 25.5591 9.30966 18.4937 10.5184 12.3861C 11.1215 9.33008 11.244 6.43876 10.4669 4.14946C 9.67391 1.81353 7.95563 0.144848 5.02318 -0.426445L 4.83196 0.555102Z"/>
<path id="path28_fill" d="M 4.19535 0.730547L 7.15302 9.9811L 10.1016 0.730547L 14.306 0.730547L 14.306 14.0265L 11.1027 14.0265L 11.1027 10.9217L 11.4121 4.56592L 8.20868 14.0265L 6.09736 14.0265L 2.88487 4.55679L 3.19429 10.9217L 3.19429 14.0265L 0 14.0265L 0 0.730547L 4.19535 0.730547Z"/>
<path id="path29_fill" d="M 27.2874 12.9581C 26.6382 13.7921 25.7615 14.2091 24.6574 14.2091C 23.5774 14.2091 22.7584 13.8956 22.2002 13.2686C 21.6481 12.6354 21.3721 11.7283 21.3721 10.5473L 21.3721 4.14585L 24.4389 4.14585L 24.4389 10.5655C 24.4389 11.4118 24.8485 11.8349 25.6675 11.8349C 26.3713 11.8349 26.8718 11.5822 27.1691 11.0769L 27.1691 4.14585L 30.2542 4.14585L 30.2542 14.0265L 27.3784 14.0265L 27.2874 12.9581Z"/>
<path id="path30_fill" d="M 40.3962 14.0265L 37.3202 14.0265L 37.3202 0L 40.3962 0L 40.3962 14.0265Z"/>
<path id="path31_fill" d="M 51.0842 1.68939L 51.0842 4.14585L 52.7041 4.14585L 52.7041 6.2827L 51.0842 6.2827L 51.0842 10.803C 51.0842 11.1743 51.1509 11.4331 51.2844 11.5792C 51.4179 11.7253 51.6818 11.7983 52.0762 11.7983C 52.3795 11.7983 52.6343 11.7801 52.8406 11.7435L 52.8406 13.9443C 52.2885 14.1209 51.7121 14.2091 51.1115 14.2091C 50.0558 14.2091 49.2762 13.9595 48.7727 13.4603C 48.2691 12.9611 48.0173 12.2032 48.0173 11.1865L 48.0173 6.2827L 46.7615 6.2827L 46.7615 4.14585L 48.0173 4.14585L 48.0173 1.68939L 51.0842 1.68939Z"/>
<path id="path32_fill" d="M 62.3729 14.0265L 59.2969 14.0265L 59.2969 4.14585L 62.3729 4.14585L 62.3729 14.0265ZM 59.1149 1.59807C 59.1149 1.15974 59.2726 0.800557 59.5881 0.520515C 59.9036 0.240472 60.3131 0.10045 60.8167 0.10045C 61.3202 0.10045 61.7298 0.240472 62.0452 0.520515C 62.3607 0.800557 62.5185 1.15974 62.5185 1.59807C 62.5185 2.0364 62.3607 2.39559 62.0452 2.67563C 61.7298 2.95567 61.3202 3.09569 60.8167 3.09569C 60.3131 3.09569 59.9036 2.95567 59.5881 2.67563C 59.2726 2.39559 59.1149 2.0364 59.1149 1.59807Z"/>
<path id="path33_fill" d="M 5.54677 4.76225C 5.52554 5.22493 5.40117 5.63434 5.17365 5.99049C 4.94614 6.34358 4.6261 6.61754 4.21355 6.81235C 3.80402 7.00716 3.33535 7.10457 2.80751 7.10457C 1.9369 7.10457 1.25132 6.81996 0.750794 6.25074C 0.250265 5.68153 0 4.87792 0 3.83994L 0 3.51119C 0 2.85979 0.11224 2.29057 0.33672 1.80354C 0.564233 1.31346 0.890335 0.936013 1.31503 0.67119C 1.73972 0.403323 2.23115 0.269389 2.78931 0.269389C 3.59319 0.269389 4.23933 0.482465 4.72773 0.908618C 5.21612 1.33173 5.49369 1.91616 5.56043 2.66193L 3.96783 2.66193C 3.9557 2.25709 3.85408 1.96639 3.66296 1.78984C 3.47185 1.61329 3.18064 1.52502 2.78931 1.52502C 2.39192 1.52502 2.10071 1.67417 1.91566 1.97248C 1.73062 2.27078 1.63355 2.74716 1.62445 3.40161L 1.62445 3.8719C 1.62445 4.58114 1.71242 5.08796 1.88836 5.39235C 2.06734 5.69675 2.37372 5.84894 2.80751 5.84894C 3.17457 5.84894 3.45517 5.76219 3.64931 5.58869C 3.84346 5.41518 3.9466 5.1397 3.95873 4.76225L 5.54677 4.76225Z"/>
<path id="path34_fill" d="M 10.4585 7.01325L 8.92052 7.01325L 8.92052 0L 10.4585 0L 10.4585 7.01325Z"/>
<path id="path35_fill" d="M 16.3986 7.10457C 15.6433 7.10457 15.032 6.87932 14.5649 6.42881C 14.0977 5.97527 13.8641 5.38626 13.8641 4.6618L 13.8641 4.53396C 13.8641 4.02866 13.9566 3.58272 14.1417 3.19614C 14.3298 2.80956 14.6028 2.51126 14.9607 2.30122C 15.3187 2.08815 15.7434 1.98161 16.2348 1.98161C 16.9264 1.98161 17.4725 2.19773 17.8729 2.62997C 18.2733 3.05917 18.4735 3.65882 18.4735 4.42894L 18.4735 5.02708L 15.4249 5.02708C 15.4795 5.30408 15.5993 5.52172 15.7843 5.68C 15.9694 5.83829 16.209 5.91743 16.5033 5.91743C 16.9886 5.91743 17.3678 5.74697 17.6408 5.40605L 18.3416 6.23705C 18.1505 6.50187 17.879 6.71342 17.5271 6.87171C 17.1782 7.02695 16.8021 7.10457 16.3986 7.10457ZM 16.2257 3.16875C 15.7767 3.16875 15.5098 3.46705 15.4249 4.06367L 16.9719 4.06367L 16.9719 3.94495C 16.978 3.69839 16.9158 3.50815 16.7854 3.37421C 16.6549 3.23724 16.4684 3.16875 16.2257 3.16875Z"/>
<path id="path36_fill" d="M 24.4773 7.01325C 24.4227 6.9128 24.3742 6.76517 24.3317 6.57036C 24.0496 6.9265 23.6553 7.10457 23.1487 7.10457C 22.6845 7.10457 22.2902 6.96455 21.9656 6.68451C 21.641 6.40142 21.4787 6.0468 21.4787 5.62065C 21.4787 5.08491 21.6759 4.68007 22.0702 4.40611C 22.4646 4.13216 23.0379 3.99518 23.7902 3.99518L 24.2635 3.99518L 24.2635 3.73492C 24.2635 3.28137 24.0678 3.0546 23.6765 3.0546C 23.3125 3.0546 23.1305 3.23419 23.1305 3.59338L 21.597 3.59338C 21.597 3.11548 21.7987 2.72738 22.2022 2.42907C 22.6087 2.13076 23.1259 1.98161 23.7538 1.98161C 24.3818 1.98161 24.8778 2.13533 25.2418 2.44277C 25.6058 2.75021 25.7924 3.17179 25.8015 3.70753L 25.8015 5.8946C 25.8075 6.34815 25.8773 6.69516 26.0108 6.93563L 26.0108 7.01325L 24.4773 7.01325ZM 23.5172 6.00875C 23.7083 6.00875 23.8661 5.96766 23.9905 5.88547C 24.1179 5.80328 24.2089 5.71044 24.2635 5.60695L 24.2635 4.81704L 23.8175 4.81704C 23.2837 4.81704 23.0167 5.05752 23.0167 5.53846C 23.0167 5.67848 23.0637 5.79263 23.1578 5.8809C 23.2518 5.96613 23.3716 6.00875 23.5172 6.00875Z"/>
<path id="path37_fill" d="M 30.6723 2.07293L 30.7223 2.6528C 31.0621 2.20534 31.5307 1.98161 32.1283 1.98161C 32.641 1.98161 33.0232 2.13533 33.275 2.44277C 33.5298 2.75021 33.6618 3.21288 33.6709 3.83081L 33.6709 7.01325L 32.1329 7.01325L 32.1329 3.89473C 32.1329 3.64513 32.0828 3.46249 31.9827 3.34682C 31.8826 3.2281 31.7006 3.16875 31.4367 3.16875C 31.1364 3.16875 30.9134 3.28746 30.7678 3.52489L 30.7678 7.01325L 29.2344 7.01325L 29.2344 2.07293L 30.6723 2.07293Z"/>
<path id="path38_fill" d="M 37.6726 8.80309L 36.899 8.43782L 37.0537 8.12734C 37.2661 7.73162 37.3768 7.35417 37.3859 6.99499L 37.3859 5.85351L 38.6145 5.85351L 38.6099 6.84431C 38.6069 7.19437 38.5174 7.55051 38.3415 7.91274C 38.1655 8.27497 37.9425 8.57175 37.6726 8.80309Z"/>
<path id="path39_fill" d="M 48.9567 7.01325L 47.3641 7.01325L 47.3641 0.365274L 48.9567 0.365274L 48.9567 7.01325Z"/>
<path id="path40_fill" d="M 54.014 2.07293L 54.0641 2.6528C 54.4038 2.20534 54.8725 1.98161 55.4701 1.98161C 55.9828 1.98161 56.365 2.13533 56.6168 2.44277C 56.8716 2.75021 57.0036 3.21288 57.0127 3.83081L 57.0127 7.01325L 55.4747 7.01325L 55.4747 3.89473C 55.4747 3.64513 55.4246 3.46249 55.3245 3.34682C 55.2244 3.2281 55.0424 3.16875 54.7785 3.16875C 54.4782 3.16875 54.2552 3.28746 54.1096 3.52489L 54.1096 7.01325L 52.5761 7.01325L 52.5761 2.07293L 54.014 2.07293Z"/>
<path id="path41_fill" d="M 62.5569 5.91743C 62.7723 5.91743 62.9391 5.8596 63.0574 5.74393C 63.1757 5.62521 63.2334 5.46084 63.2303 5.25081L 64.6682 5.25081C 64.6682 5.79263 64.4741 6.23705 64.0858 6.58406C 63.7005 6.93107 63.203 7.10457 62.5933 7.10457C 61.8774 7.10457 61.3131 6.87932 60.9006 6.42881C 60.488 5.97831 60.2817 5.3543 60.2817 4.55679L 60.2817 4.49286C 60.2817 3.99366 60.3728 3.55381 60.5548 3.17331C 60.7398 2.78978 61.0052 2.49604 61.3511 2.29209C 61.6969 2.0851 62.1064 1.98161 62.5796 1.98161C 63.2197 1.98161 63.7278 2.15968 64.104 2.51582C 64.4801 2.87196 64.6682 3.35443 64.6682 3.96322L 63.2303 3.96322C 63.2303 3.70753 63.1681 3.51119 63.0438 3.37421C 62.9194 3.23724 62.7525 3.16875 62.5432 3.16875C 62.1458 3.16875 61.9138 3.42292 61.847 3.93126C 61.8258 4.09259 61.8152 4.31479 61.8152 4.59788C 61.8152 5.09404 61.8743 5.43801 61.9926 5.62978C 62.111 5.82155 62.299 5.91743 62.5569 5.91743Z"/>
<path id="path42_fill" d="M 68.8746 5.5202C 69.1173 5.5202 69.3191 5.59325 69.4798 5.73936C 69.6406 5.88243 69.721 6.06658 69.721 6.29184C 69.721 6.51709 69.6406 6.70277 69.4798 6.84888C 69.3191 6.99194 69.1173 7.06348 68.8746 7.06348C 68.6289 7.06348 68.4257 6.99042 68.2649 6.84431C 68.1072 6.6982 68.0283 6.51404 68.0283 6.29184C 68.0283 6.06963 68.1072 5.88547 68.2649 5.73936C 68.4257 5.59325 68.6289 5.5202 68.8746 5.5202Z"/>
</defs>
</svg>
