<?xml version="1.0" encoding="UTF-8" standalone="no"?><!DOCTYPE svg PUBLIC "-//W3C//DTD SVG 1.1//EN" "http://www.w3.org/Graphics/SVG/1.1/DTD/svg11.dtd"><svg width="100%" height="100%" viewBox="0 0 2000 2000" version="1.1" xmlns="http://www.w3.org/2000/svg" xmlns:xlink="http://www.w3.org/1999/xlink" xml:space="preserve" xmlns:serif="http://www.serif.com/" style="fill-rule:evenodd;clip-rule:evenodd;stroke-linejoin:round;stroke-miterlimit:1.41421;"><path id="rect4940" d="M1000,160.999l-839.001,839.001l839.001,839.001l839.001,-839.001l-839.001,-839.001Z" style="fill:#ececec;"/><g id="Strategic"><path id="path4942" d="M169.583,931.832c0,-10.922 -3.901,-19.434 -11.702,-25.533c-7.66,-6.1 -21.207,-12.412 -40.641,-18.937c-19.433,-6.525 -35.321,-12.838 -47.662,-18.937c-40.144,-19.718 -60.216,-46.811 -60.216,-81.281c0,-17.164 4.965,-32.271 14.895,-45.322c10.071,-13.192 24.256,-23.405 42.555,-30.639c18.299,-7.377 38.867,-11.065 61.705,-11.065c22.271,0 42.201,3.972 59.791,11.915c17.731,7.944 31.491,19.292 41.278,34.045c9.788,14.61 14.682,31.349 14.682,50.215l-74.472,0c0,-12.625 -3.901,-22.412 -11.703,-29.363c-7.66,-6.951 -18.086,-10.426 -31.278,-10.426c-13.334,0 -23.902,2.979 -31.704,8.936c-7.66,5.816 -11.49,13.264 -11.49,22.342c0,7.944 4.256,15.178 12.767,21.703c8.511,6.384 23.476,13.051 44.896,20.001c21.42,6.809 39.009,14.185 52.769,22.129c33.477,19.292 50.215,45.889 50.215,79.792c0,27.093 -10.213,48.371 -30.64,63.833c-20.426,15.461 -48.442,23.192 -84.047,23.192c-25.108,0 -47.875,-4.468 -68.301,-13.404c-20.285,-9.079 -35.605,-21.42 -45.96,-37.024c-10.213,-15.745 -15.32,-33.831 -15.32,-54.258l74.898,0c0,16.597 4.255,28.867 12.766,36.811c8.653,7.801 22.626,11.702 41.917,11.702c12.341,0 22.058,-2.624 29.151,-7.873c7.234,-5.39 10.851,-12.908 10.851,-22.554l0,0Z" style="fill-rule:nonzero;"/><path id="path4944" d="M379.878,726.715l0,57.237l37.875,0l0,49.79l-37.875,0l0,105.325c0,8.653 1.561,14.681 4.682,18.086c3.12,3.404 9.291,5.106 18.511,5.106c7.093,0 13.05,-0.425 17.873,-1.276l0,51.279c-12.908,4.114 -26.384,6.171 -40.427,6.171c-24.682,0 -42.91,-5.816 -54.684,-17.448c-11.774,-11.631 -17.66,-29.292 -17.66,-52.981l0,-114.261l-29.364,0l0,-49.79l29.364,0l0,-57.237l71.705,-0.001Z" style="fill-rule:nonzero;"/><path id="path4946" d="M602.089,848.849l-23.618,-1.703c-22.554,0 -37.023,7.092 -43.407,21.277l0,145.752l-71.705,0l0,-230.224l67.237,0l2.342,29.576c12.057,-22.555 28.866,-33.832 50.428,-33.832c7.66,0 14.327,0.851 20.001,2.552l-1.278,66.602Z" style="fill-rule:nonzero;"/><path id="path4948" d="M768.34,1014.18c-2.554,-4.681 -4.823,-11.561 -6.809,-20.639c-13.193,16.596 -31.633,24.894 -55.322,24.894c-21.704,0 -40.144,-6.525 -55.322,-19.575c-15.179,-13.192 -22.768,-29.718 -22.768,-49.577c0,-24.966 9.221,-43.832 27.662,-56.599c18.44,-12.766 45.25,-19.15 80.429,-19.15l22.129,0l0,-12.128c0,-21.136 -9.149,-31.704 -27.448,-31.704c-17.022,0 -25.533,8.369 -25.533,25.108l-71.706,0c0,-22.271 9.433,-40.357 28.299,-54.258c19.008,-13.902 43.194,-20.852 72.557,-20.852c29.363,0 52.556,7.163 69.578,21.49c17.022,14.327 25.746,33.973 26.172,58.939l0,101.921c0.283,21.135 3.545,37.306 9.787,48.513l0,3.617l-71.705,0Zm-44.896,-46.811c8.936,0 16.312,-1.915 22.128,-5.745c5.958,-3.83 10.214,-8.157 12.767,-12.979l0,-36.811l-20.852,0c-24.966,0 -37.449,11.206 -37.449,33.619c0,6.525 2.199,11.844 6.596,15.958c4.398,3.972 10.001,5.958 16.81,5.958Z" style="fill-rule:nonzero;"/><path id="path4950" d="M970.336,726.715l0,57.237l37.875,0l0,49.79l-37.875,0l0,105.325c0,8.653 1.561,14.681 4.681,18.086c3.121,3.404 9.292,5.106 18.512,5.106c7.093,0 13.05,-0.425 17.873,-1.276l0,51.279c-12.908,4.114 -26.384,6.171 -40.427,6.171c-24.682,0 -42.91,-5.816 -54.684,-17.448c-11.774,-11.631 -17.66,-29.292 -17.66,-52.981l0,-114.261l-29.364,0l0,-49.79l29.364,0l0,-57.237l71.705,-0.001Z" style="fill-rule:nonzero;"/><path id="path4952" d="M1164.67,1018.43c-35.321,0 -63.904,-10.497 -85.749,-31.491c-21.845,-21.136 -32.768,-48.584 -32.768,-82.344l0,-5.958c0,-23.547 4.327,-44.329 12.98,-62.344c8.795,-18.015 21.561,-31.916 38.3,-41.704c16.738,-9.93 36.597,-14.894 59.577,-14.894c32.342,0 57.876,10.071 76.6,30.214c18.724,20.001 28.087,47.946 28.087,83.834l0,27.874l-142.561,0c2.553,12.908 8.157,23.051 16.81,30.427c8.652,7.376 19.858,11.064 33.618,11.064c22.696,0 40.428,-7.943 53.194,-23.831l32.768,38.726c-8.937,12.341 -21.632,22.199 -38.087,29.576c-16.313,7.234 -33.902,10.851 -52.769,10.851l0,0Zm-8.085,-183.413c-20.994,0 -33.477,13.901 -37.449,41.704l72.344,0l0,-5.532c0.283,-11.49 -2.625,-20.356 -8.724,-26.597c-6.099,-6.384 -14.823,-9.575 -26.171,-9.575l0,0Z" style="fill-rule:nonzero;"/><path id="path4954" d="M1299.01,897.362c0,-23.263 3.83,-43.832 11.49,-61.705c7.66,-17.873 18.653,-31.633 32.98,-41.279c14.327,-9.788 30.995,-14.681 50.003,-14.681c23.973,0 42.697,8.085 56.173,24.256l2.552,-20.001l65.11,0l0,221.501c0,20.285 -4.752,37.874 -14.256,52.769c-9.362,15.036 -22.98,26.526 -40.853,34.469c-17.873,8.086 -38.584,12.129 -62.131,12.129c-16.88,0 -33.264,-3.192 -49.152,-9.575c-15.745,-6.383 -27.802,-14.682 -36.172,-24.895l30.002,-42.13c13.334,15.746 30.924,23.618 52.769,23.618c31.774,0 47.662,-16.313 47.662,-48.938l0,-7.235c-13.76,15.178 -31.137,22.767 -52.131,22.767c-28.086,0 -50.782,-10.709 -68.088,-32.129c-17.306,-21.561 -25.959,-50.357 -25.959,-86.387l0.001,-2.554Zm71.919,4.468c0,18.867 3.546,33.832 10.638,44.896c7.093,10.923 17.023,16.384 29.789,16.384c15.462,0 26.739,-5.177 33.832,-15.532l0,-96.814c-6.951,-10.497 -18.086,-15.745 -33.406,-15.745c-12.767,0 -22.767,5.745 -30.002,17.235c-7.234,11.348 -10.851,27.873 -10.851,49.576l0,0Z" style="fill-rule:nonzero;"/><path id="path4958" d="M1655.9,726.715c-49.689,0 -41.581,51.63 -41.581,51.63c0,0 9.518,8.042 5.681,8.956c-8.559,2.289 -9.063,13.049 -20.475,14.613c-2.555,10.049 0.922,11.141 0.922,11.141c24.483,6.578 22.101,7.683 22.101,7.683c0,0 2.93,11.501 -1.821,46.399c-4.75,34.897 -26.372,54.869 -26.372,54.869c3.746,13.308 0.907,16.409 0.907,16.409c-31.265,22.48 -31.786,33.072 -31.786,33.072c16.02,20.285 -9.26,22.089 -9.26,22.089c-3.655,11.694 6.578,24.844 6.578,24.844l189.38,0l0.059,0.012c0,0 10.223,-13.156 6.542,-24.856c0,0 -25.28,-1.802 -9.26,-22.088c0,0 -0.527,-10.593 -31.787,-33.073c0,0 -2.836,-3.1 0.911,-16.408c0,0 -21.622,-19.961 -26.373,-54.858c-4.75,-34.898 -1.821,-46.411 -1.821,-46.411c0,0 -2.37,-1.1 22.113,-7.682c0,0 3.467,-1.089 0.911,-11.142c-11.412,-1.563 -11.916,-12.326 -20.475,-14.612c-3.837,-0.913 5.668,-8.957 5.668,-8.957c0,0 8.945,-51.629 -40.742,-51.63l-0.02,0Z" style="fill-rule:nonzero;"/><path id="path4956" d="M1901.27,963.11c10.072,0 17.874,-2.695 23.406,-8.085c5.532,-5.532 8.227,-13.192 8.085,-22.98l67.238,0c0,25.25 -9.078,45.96 -27.235,62.131c-18.016,16.171 -41.279,24.256 -69.791,24.256c-33.477,0 -59.862,-10.497 -79.153,-31.491c-19.292,-20.994 -28.938,-50.073 -28.938,-87.238l0,-2.979c0,-23.264 4.256,-43.761 12.767,-61.493c8.652,-17.873 21.065,-31.562 37.236,-41.065c16.171,-9.646 35.321,-14.469 57.449,-14.469c29.931,0 53.691,8.298 71.281,24.895c17.589,16.596 26.384,39.079 26.384,67.45l-67.238,0c0,-11.916 -2.908,-21.065 -8.723,-27.448c-5.816,-6.384 -13.618,-9.575 -23.406,-9.575c-18.582,0 -29.434,11.844 -32.555,35.533c-0.993,7.518 -1.489,17.874 -1.489,31.066c0,23.122 2.766,39.151 8.298,48.087c5.532,8.937 14.327,13.405 26.384,13.405l0,0Z" style="fill-rule:nonzero;"/></g><g id="Business-Consulting-Inc." serif:id="Business Consulting Inc."><path d="M96.108,1262.1l0,-114.274l40.028,0c13.865,0 24.382,2.656 31.55,7.967c7.169,5.31 10.753,13.093 10.753,23.349c0,5.598 -1.439,10.53 -4.317,14.794c-2.878,4.264 -6.88,7.391 -12.008,9.379c5.86,1.465 10.478,4.421 13.852,8.869c3.375,4.447 5.063,9.889 5.063,16.324c0,10.988 -3.506,19.308 -10.517,24.958c-7.012,5.651 -17.005,8.529 -29.981,8.634l-44.423,0Zm23.546,-49.759l0,30.844l20.17,0c5.547,0 9.876,-1.321 12.989,-3.963c3.114,-2.643 4.67,-6.292 4.67,-10.949c0,-10.465 -5.415,-15.775 -16.246,-15.932l-21.583,0Zm0,-16.639l17.423,0c11.878,-0.209 17.816,-4.945 17.816,-14.206c0,-5.18 -1.504,-8.908 -4.513,-11.184c-3.008,-2.276 -7.756,-3.414 -14.244,-3.414l-16.482,0l0,28.804Z" style="fill:#800000;fill-rule:nonzero;"/><path d="M249.869,1253.46c-5.599,6.802 -13.343,10.203 -23.232,10.203c-9.104,0 -16.05,-2.616 -20.837,-7.848c-4.788,-5.232 -7.234,-12.898 -7.339,-22.996l0,-55.645l22.682,0l0,54.924c0,8.852 4.029,13.279 12.087,13.279c7.691,0 12.976,-2.672 15.854,-8.016l0,-60.187l22.76,0l0,84.92l-21.348,0l-0.627,-8.634Z" style="fill:#800000;fill-rule:nonzero;"/><path d="M336.76,1238.63c0,-2.773 -1.374,-4.958 -4.121,-6.554c-2.747,-1.595 -7.155,-3.021 -13.224,-4.277c-20.197,-4.238 -30.295,-12.819 -30.295,-25.743c0,-7.534 3.126,-13.826 9.379,-18.875c6.252,-5.05 14.428,-7.574 24.526,-7.574c10.779,0 19.399,2.538 25.861,7.613c6.462,5.075 9.693,11.668 9.693,19.778l-22.682,0c0,-3.244 -1.047,-5.926 -3.14,-8.045c-2.093,-2.119 -5.363,-3.178 -9.81,-3.178c-3.82,0 -6.776,0.863 -8.869,2.59c-2.093,1.726 -3.14,3.924 -3.14,6.592c0,2.512 1.191,4.539 3.571,6.083c2.381,1.543 6.397,2.878 12.048,4.003c5.651,1.125 10.412,2.393 14.284,3.806c11.982,4.395 17.973,12.008 17.973,22.839c0,7.744 -3.323,14.01 -9.968,18.797c-6.645,4.788 -15.226,7.181 -25.742,7.181c-7.116,0 -13.434,-1.268 -18.954,-3.806c-5.521,-2.538 -9.85,-6.017 -12.99,-10.438c-3.139,-4.422 -4.709,-9.196 -4.709,-14.324l21.505,0c0.209,4.029 1.701,7.116 4.474,9.261c2.773,2.146 6.488,3.218 11.144,3.218c4.343,0 7.627,-0.824 9.85,-2.472c2.224,-1.648 3.336,-3.807 3.336,-6.475Z" style="fill:#800000;fill-rule:nonzero;"/><path d="M399.164,1262.1l-22.76,0l0,-84.92l22.76,0l0,84.92Zm-24.095,-106.896c0,-3.401 1.138,-6.2 3.414,-8.398c2.276,-2.197 5.377,-3.296 9.301,-3.296c3.872,0 6.959,1.099 9.261,3.296c2.302,2.198 3.453,4.997 3.453,8.398c0,3.453 -1.164,6.279 -3.492,8.476c-2.329,2.198 -5.403,3.297 -9.222,3.297c-3.82,0 -6.894,-1.099 -9.222,-3.297c-2.329,-2.197 -3.493,-5.023 -3.493,-8.476Z" style="fill:#800000;fill-rule:nonzero;"/><path d="M440.534,1177.18l0.707,9.81c6.069,-7.587 14.205,-11.38 24.408,-11.38c9,0 15.697,2.642 20.092,7.927c4.396,5.284 6.645,13.185 6.75,23.702l0,54.861l-22.682,0l0,-54.311c0,-4.814 -1.046,-8.307 -3.139,-10.478c-2.093,-2.172 -5.573,-3.257 -10.439,-3.257c-6.383,0 -11.171,2.721 -14.362,8.162l0,59.884l-22.682,0l0,-84.92l21.347,0Z" style="fill:#800000;fill-rule:nonzero;"/><path d="M550.579,1263.67c-12.453,0 -22.591,-3.819 -30.413,-11.458c-7.822,-7.639 -11.734,-17.816 -11.734,-30.531l0,-2.197c0,-8.529 1.649,-16.155 4.945,-22.879c3.296,-6.723 7.966,-11.903 14.009,-15.539c6.044,-3.637 12.937,-5.455 20.681,-5.455c11.616,0 20.759,3.663 27.43,10.988c6.672,7.325 10.007,17.711 10.007,31.158l0,9.261l-54.076,0c0.733,5.546 2.944,9.994 6.632,13.343c3.689,3.348 8.359,5.023 14.01,5.023c8.738,0 15.566,-3.166 20.484,-9.497l11.145,12.479c-3.401,4.814 -8.005,8.568 -13.813,11.262c-5.808,2.695 -12.244,4.042 -19.307,4.042Zm-2.59,-69.772c-4.5,0 -8.15,1.524 -10.949,4.572c-2.799,3.048 -4.591,7.411 -5.376,13.087l31.551,0l0,-1.814c-0.105,-5.045 -1.465,-8.947 -4.082,-11.706c-2.616,-2.76 -6.331,-4.139 -11.144,-4.139Z" style="fill:#800000;fill-rule:nonzero;"/><path d="M646.182,1238.63c0,-2.773 -1.374,-4.958 -4.121,-6.554c-2.747,-1.595 -7.155,-3.021 -13.224,-4.277c-20.197,-4.238 -30.295,-12.819 -30.295,-25.743c0,-7.534 3.126,-13.826 9.378,-18.875c6.253,-5.05 14.429,-7.574 24.527,-7.574c10.778,0 19.399,2.538 25.861,7.613c6.461,5.075 9.692,11.668 9.692,19.778l-22.682,0c0,-3.244 -1.046,-5.926 -3.139,-8.045c-2.093,-2.119 -5.363,-3.178 -9.811,-3.178c-3.819,0 -6.775,0.863 -8.868,2.59c-2.093,1.726 -3.14,3.924 -3.14,6.592c0,2.512 1.191,4.539 3.571,6.083c2.381,1.543 6.397,2.878 12.048,4.003c5.651,1.125 10.412,2.393 14.284,3.806c11.982,4.395 17.973,12.008 17.973,22.839c0,7.744 -3.323,14.01 -9.968,18.797c-6.645,4.788 -15.226,7.181 -25.743,7.181c-7.116,0 -13.434,-1.268 -18.954,-3.806c-5.52,-2.538 -9.849,-6.017 -12.989,-10.438c-3.139,-4.422 -4.709,-9.196 -4.709,-14.324l21.505,0c0.209,4.029 1.7,7.116 4.473,9.261c2.774,2.146 6.489,3.218 11.145,3.218c4.343,0 7.626,-0.824 9.85,-2.472c2.224,-1.648 3.336,-3.807 3.336,-6.475Z" style="fill:#800000;fill-rule:nonzero;"/><path d="M730.64,1238.63c0,-2.773 -1.374,-4.958 -4.12,-6.554c-2.747,-1.595 -7.156,-3.021 -13.225,-4.277c-20.197,-4.238 -30.295,-12.819 -30.295,-25.743c0,-7.534 3.126,-13.826 9.379,-18.875c6.252,-5.05 14.428,-7.574 24.526,-7.574c10.779,0 19.399,2.538 25.861,7.613c6.462,5.075 9.693,11.668 9.693,19.778l-22.682,0c0,-3.244 -1.047,-5.926 -3.14,-8.045c-2.093,-2.119 -5.363,-3.178 -9.81,-3.178c-3.82,0 -6.776,0.863 -8.869,2.59c-2.093,1.726 -3.139,3.924 -3.139,6.592c0,2.512 1.19,4.539 3.571,6.083c2.38,1.543 6.396,2.878 12.047,4.003c5.651,1.125 10.412,2.393 14.284,3.806c11.982,4.395 17.973,12.008 17.973,22.839c0,7.744 -3.322,14.01 -9.967,18.797c-6.645,4.788 -15.226,7.181 -25.743,7.181c-7.116,0 -13.434,-1.268 -18.954,-3.806c-5.52,-2.538 -9.85,-6.017 -12.99,-10.438c-3.139,-4.422 -4.709,-9.196 -4.709,-14.324l21.505,0c0.209,4.029 1.701,7.116 4.474,9.261c2.773,2.146 6.488,3.218 11.145,3.218c4.342,0 7.626,-0.824 9.849,-2.472c2.224,-1.648 3.336,-3.807 3.336,-6.475Z" style="fill:#800000;fill-rule:nonzero;"/><path d="M902.147,1224.03c-0.89,12.296 -5.429,21.975 -13.618,29.039c-8.188,7.064 -18.98,10.595 -32.374,10.595c-14.651,0 -26.175,-4.931 -34.573,-14.794c-8.398,-9.863 -12.596,-23.401 -12.596,-40.616l0,-6.985c0,-10.988 1.935,-20.667 5.807,-29.039c3.872,-8.372 9.405,-14.794 16.6,-19.268c7.194,-4.473 15.553,-6.71 25.076,-6.71c13.185,0 23.807,3.532 31.864,10.595c8.058,7.064 12.715,16.979 13.971,29.746l-23.546,0c-0.575,-7.378 -2.629,-12.728 -6.161,-16.05c-3.532,-3.323 -8.908,-4.984 -16.128,-4.984c-7.849,0 -13.722,2.812 -17.62,8.437c-3.898,5.625 -5.9,14.35 -6.004,26.175l0,8.633c0,12.348 1.87,21.374 5.611,27.077c3.742,5.703 9.641,8.555 17.699,8.555c7.273,0 12.701,-1.662 16.285,-4.984c3.584,-3.323 5.638,-8.463 6.161,-15.422l23.546,0Z" style="fill:#800000;fill-rule:nonzero;"/><path d="M914.399,1218.85c0,-8.424 1.622,-15.933 4.866,-22.525c3.244,-6.593 7.914,-11.694 14.01,-15.305c6.095,-3.61 13.172,-5.415 21.23,-5.415c11.458,0 20.811,3.506 28.058,10.517c7.247,7.011 11.289,16.534 12.126,28.568l0.157,5.808c0,13.028 -3.637,23.48 -10.91,31.355c-7.273,7.874 -17.031,11.811 -29.274,11.811c-12.244,0 -22.015,-3.924 -29.314,-11.772c-7.299,-7.849 -10.949,-18.523 -10.949,-32.022l0,-1.02Zm22.682,1.61c0,8.07 1.518,14.24 4.552,18.511c3.035,4.271 7.378,6.407 13.029,6.407c5.494,0 9.784,-2.11 12.871,-6.328c3.087,-4.219 4.631,-10.966 4.631,-20.241c0,-7.913 -1.544,-14.044 -4.631,-18.393c-3.087,-4.35 -7.43,-6.524 -13.028,-6.524c-5.547,0 -9.837,2.161 -12.872,6.485c-3.034,4.323 -4.552,11.017 -4.552,20.083Z" style="fill:#800000;fill-rule:nonzero;"/><path d="M1031.51,1177.18l0.706,9.81c6.07,-7.587 14.206,-11.38 24.409,-11.38c9,0 15.697,2.642 20.092,7.927c4.395,5.284 6.645,13.185 6.75,23.702l0,54.861l-22.682,0l0,-54.311c0,-4.814 -1.047,-8.307 -3.14,-10.478c-2.093,-2.172 -5.572,-3.257 -10.438,-3.257c-6.384,0 -11.171,2.721 -14.363,8.162l0,59.884l-22.682,0l0,-84.92l21.348,0Z" style="fill:#800000;fill-rule:nonzero;"/><path d="M1148.46,1238.63c0,-2.773 -1.374,-4.958 -4.121,-6.554c-2.747,-1.595 -7.155,-3.021 -13.224,-4.277c-20.197,-4.238 -30.295,-12.819 -30.295,-25.743c0,-7.534 3.126,-13.826 9.379,-18.875c6.252,-5.05 14.428,-7.574 24.526,-7.574c10.779,0 19.399,2.538 25.861,7.613c6.462,5.075 9.692,11.668 9.692,19.778l-22.682,0c0,-3.244 -1.046,-5.926 -3.139,-8.045c-2.093,-2.119 -5.363,-3.178 -9.81,-3.178c-3.82,0 -6.776,0.863 -8.869,2.59c-2.093,1.726 -3.14,3.924 -3.14,6.592c0,2.512 1.191,4.539 3.571,6.083c2.381,1.543 6.397,2.878 12.048,4.003c5.651,1.125 10.412,2.393 14.284,3.806c11.982,4.395 17.973,12.008 17.973,22.839c0,7.744 -3.323,14.01 -9.968,18.797c-6.645,4.788 -15.226,7.181 -25.742,7.181c-7.116,0 -13.434,-1.268 -18.954,-3.806c-5.521,-2.538 -9.85,-6.017 -12.99,-10.438c-3.139,-4.422 -4.709,-9.196 -4.709,-14.324l21.505,0c0.209,4.029 1.701,7.116 4.474,9.261c2.773,2.146 6.488,3.218 11.144,3.218c4.343,0 7.627,-0.824 9.85,-2.472c2.224,-1.648 3.336,-3.807 3.336,-6.475Z" style="fill:#800000;fill-rule:nonzero;"/><path d="M1237.78,1253.46c-5.598,6.802 -13.342,10.203 -23.231,10.203c-9.104,0 -16.05,-2.616 -20.838,-7.848c-4.787,-5.232 -7.233,-12.898 -7.338,-22.996l0,-55.645l22.682,0l0,54.924c0,8.852 4.029,13.279 12.086,13.279c7.692,0 12.977,-2.672 15.854,-8.016l0,-60.187l22.761,0l0,84.92l-21.348,0l-0.628,-8.634Z" style="fill:#800000;fill-rule:nonzero;"/><rect x="1279.86" y="1141.55" width="22.76" height="120.552" style="fill:#800000;fill-rule:nonzero;"/><path d="M1350.27,1156.3l0,20.877l14.52,0l0,16.638l-14.52,0l0,42.382c0,3.139 0.602,5.389 1.806,6.75c1.203,1.36 3.505,2.04 6.906,2.04c2.512,0 4.735,-0.183 6.671,-0.549l0,17.188c-4.447,1.36 -9.025,2.04 -13.734,2.04c-15.907,0 -24.017,-8.031 -24.331,-24.094l0,-45.757l-12.4,0l0,-16.638l12.4,0l0,-20.877l22.682,0Z" style="fill:#800000;fill-rule:nonzero;"/><path d="M1403.18,1262.1l-22.76,0l0,-84.92l22.76,0l0,84.92Zm-24.095,-106.896c0,-3.401 1.138,-6.2 3.414,-8.398c2.276,-2.197 5.377,-3.296 9.301,-3.296c3.872,0 6.959,1.099 9.261,3.296c2.302,2.198 3.453,4.997 3.453,8.398c0,3.453 -1.164,6.279 -3.492,8.476c-2.329,2.198 -5.403,3.297 -9.222,3.297c-3.82,0 -6.894,-1.099 -9.222,-3.297c-2.329,-2.197 -3.493,-5.023 -3.493,-8.476Z" style="fill:#800000;fill-rule:nonzero;"/><path d="M1444.55,1177.18l0.707,9.81c6.069,-7.587 14.205,-11.38 24.408,-11.38c9,0 15.697,2.642 20.092,7.927c4.396,5.284 6.645,13.185 6.75,23.702l0,54.861l-22.682,0l0,-54.311c0,-4.814 -1.046,-8.307 -3.139,-10.478c-2.093,-2.172 -5.573,-3.257 -10.439,-3.257c-6.383,0 -11.171,2.721 -14.362,8.162l0,59.884l-22.682,0l0,-84.92l21.347,0Z" style="fill:#800000;fill-rule:nonzero;"/><path d="M1512.21,1219.01c0,-13.029 3.1,-23.519 9.3,-31.472c6.201,-7.954 14.559,-11.93 25.076,-11.93c9.314,0 16.56,3.192 21.74,9.575l0.942,-8.005l20.563,0l0,82.094c0,7.43 -1.687,13.892 -5.062,19.386c-3.375,5.494 -8.123,9.68 -14.245,12.557c-6.122,2.878 -13.29,4.317 -21.505,4.317c-6.226,0 -12.296,-1.243 -18.208,-3.728c-5.913,-2.485 -10.386,-5.69 -13.421,-9.614l10.046,-13.814c5.651,6.332 12.505,9.497 20.563,9.497c6.017,0 10.7,-1.609 14.049,-4.827c3.348,-3.218 5.023,-7.783 5.023,-13.695l0,-4.552c-5.233,5.912 -12.113,8.868 -20.642,8.868c-10.203,0 -18.457,-3.989 -24.762,-11.968c-6.305,-7.98 -9.457,-18.562 -9.457,-31.747l0,-0.942Zm22.682,1.688c0,7.704 1.544,13.744 4.631,18.119c3.087,4.376 7.325,6.564 12.714,6.564c6.907,0 11.851,-2.595 14.834,-7.783l0,-35.764c-3.035,-5.188 -7.927,-7.782 -14.677,-7.782c-5.442,0 -9.719,2.227 -12.832,6.681c-3.113,4.455 -4.67,11.11 -4.67,19.965Z" style="fill:#800000;fill-rule:nonzero;"/><rect x="1653.89" y="1147.82" width="23.545" height="114.273" style="fill:#800000;fill-rule:nonzero;"/><path d="M1720.45,1177.18l0.707,9.81c6.069,-7.587 14.205,-11.38 24.408,-11.38c9,0 15.697,2.642 20.092,7.927c4.395,5.284 6.645,13.185 6.75,23.702l0,54.861l-22.682,0l0,-54.311c0,-4.814 -1.046,-8.307 -3.139,-10.478c-2.093,-2.172 -5.573,-3.257 -10.439,-3.257c-6.383,0 -11.171,2.721 -14.362,8.162l0,59.884l-22.682,0l0,-84.92l21.347,0Z" style="fill:#800000;fill-rule:nonzero;"/><path d="M1826.73,1245.38c4.186,0 7.587,-1.152 10.203,-3.454c2.616,-2.302 3.977,-5.363 4.081,-9.182l21.27,0c-0.053,5.755 -1.622,11.027 -4.709,15.814c-3.087,4.788 -7.312,8.503 -12.676,11.145c-5.363,2.642 -11.288,3.963 -17.776,3.963c-12.139,0 -21.714,-3.858 -28.726,-11.576c-7.011,-7.718 -10.517,-18.378 -10.517,-31.982l0,-1.492c0,-13.08 3.48,-23.519 10.439,-31.315c6.959,-7.796 16.508,-11.694 28.647,-11.694c10.621,0 19.137,3.022 25.546,9.065c6.41,6.043 9.667,14.088 9.772,24.134l-21.27,0c-0.104,-4.418 -1.465,-8.008 -4.081,-10.77c-2.616,-2.761 -6.069,-4.142 -10.36,-4.142c-5.284,0 -9.274,1.926 -11.969,5.777c-2.694,3.851 -4.042,10.1 -4.042,18.747l0,2.358c0,8.752 1.335,15.04 4.003,18.866c2.669,3.825 6.724,5.738 12.165,5.738Z" style="fill:#800000;fill-rule:nonzero;"/><path d="M1878.23,1250.95c0,-3.61 1.217,-6.54 3.65,-8.79c2.433,-2.25 5.48,-3.375 9.143,-3.375c3.715,0 6.789,1.125 9.222,3.375c2.433,2.25 3.65,5.18 3.65,8.79c0,3.558 -1.204,6.449 -3.611,8.672c-2.407,2.224 -5.494,3.336 -9.261,3.336c-3.715,0 -6.776,-1.112 -9.183,-3.336c-2.406,-2.223 -3.61,-5.114 -3.61,-8.672Z" style="fill:#800000;fill-rule:nonzero;"/></g><g id="Slogan"><path d="M601.936,589.942l-5.28,21.578l-7.919,0l4.763,-30.071l9.755,0l-1.319,8.493Zm16.757,0l-5.28,21.578l-7.919,0l4.763,-30.071l9.755,0l-1.319,8.493Z" style="fill:#800000;fill-rule:nonzero;"/><path d="M634.187,669.595l-14.117,0l14.519,-83.555l14.117,0l-14.519,83.555Z" style="fill:#800000;fill-rule:nonzero;"/><path d="M681.187,592.41l-2.64,15.092l10.617,0l-1.779,10.33l-10.674,0l-5.854,34.777c-0.115,0.956 -0.134,1.817 -0.057,2.582c0.229,2.487 1.76,3.788 4.591,3.902c1.415,0 3.022,-0.172 4.82,-0.516l-0.918,10.903c-2.831,0.804 -5.681,1.205 -8.551,1.205c-4.744,-0.076 -8.292,-1.692 -10.645,-4.849c-2.353,-3.156 -3.28,-7.336 -2.783,-12.539l5.796,-35.465l-9.928,0l1.836,-10.33l9.871,0l2.64,-15.092l13.658,0Z" style="fill:#800000;fill-rule:nonzero;"/><path d="M710.397,589.311l-4.821,21.749l-9.009,0l4.648,-29.611l10.387,0l-1.205,7.862Z" style="fill:#800000;fill-rule:nonzero;"/><path d="M740.927,652.379c0.65,-3.788 -1.808,-6.418 -7.375,-7.891c-5.566,-1.473 -9.363,-2.649 -11.391,-3.529c-7.881,-3.367 -11.688,-8.493 -11.42,-15.38c0.191,-5.585 2.726,-10.205 7.604,-13.859c4.878,-3.653 10.722,-5.442 17.532,-5.365c6.58,0.076 11.946,1.932 16.097,5.566c4.151,3.635 6.188,8.398 6.111,14.29l-13.486,-0.058c0.077,-2.869 -0.707,-5.117 -2.352,-6.743c-1.645,-1.626 -3.903,-2.477 -6.772,-2.553c-3.022,0 -5.614,0.746 -7.776,2.238c-2.162,1.492 -3.415,3.443 -3.759,5.853c-0.535,3.482 1.913,5.901 7.346,7.26c5.432,1.358 9.449,2.611 12.051,3.758c7.575,3.329 11.229,8.532 10.961,15.61c-0.191,3.94 -1.483,7.374 -3.874,10.301c-2.391,2.926 -5.595,5.164 -9.612,6.714c-4.017,1.549 -8.283,2.267 -12.797,2.152c-6.772,-0.077 -12.386,-2.047 -16.843,-5.911c-4.457,-3.864 -6.648,-8.818 -6.571,-14.863l13.141,0.057c0.077,3.329 1.072,5.854 2.984,7.575c1.913,1.722 4.534,2.602 7.863,2.64c3.366,0 6.169,-0.698 8.407,-2.095c2.238,-1.396 3.548,-3.318 3.931,-5.767Z" style="fill:#800000;fill-rule:nonzero;"/><path d="M827.237,625.522l25.479,-39.482l16.413,0l-36.842,53.542l-5.223,30.013l-14.231,0l5.509,-31.505l-17.848,-52.05l14.978,0l11.765,39.482Z" style="fill:#800000;fill-rule:nonzero;"/><path d="M861.784,638.319c0.65,-6.083 2.439,-11.611 5.365,-16.585c2.927,-4.973 6.686,-8.818 11.277,-11.534c4.591,-2.717 9.679,-3.998 15.265,-3.845c5.318,0.076 9.909,1.492 13.773,4.246c3.864,2.755 6.685,6.523 8.464,11.306c1.779,4.782 2.401,10.1 1.865,15.953c-0.612,6.58 -2.4,12.396 -5.365,17.446c-2.965,5.05 -6.753,8.923 -11.363,11.621c-4.61,2.697 -9.727,3.969 -15.351,3.816c-5.28,-0.077 -9.842,-1.483 -13.687,-4.218c-3.845,-2.736 -6.666,-6.485 -8.464,-11.248c-1.799,-4.763 -2.449,-10.014 -1.952,-15.753l0.173,-1.205Zm13.371,7.862c0.191,4.017 1.253,7.241 3.185,9.67c1.932,2.429 4.619,3.701 8.063,3.816c4.667,0.115 8.579,-1.683 11.735,-5.394c3.156,-3.711 5.136,-8.78 5.94,-15.208l0.344,-5.624c0,-4.897 -0.976,-8.742 -2.927,-11.534c-1.951,-2.793 -4.782,-4.266 -8.493,-4.419c-5.815,-0.153 -10.406,2.697 -13.773,8.55c-2.027,3.558 -3.309,7.652 -3.845,12.281c-0.306,3.214 -0.382,5.835 -0.229,7.862Z" style="fill:#800000;fill-rule:nonzero;"/><path d="M962.383,663.455c-4.706,5.011 -10.598,7.441 -17.675,7.288c-4.017,-0.077 -7.355,-1.071 -10.014,-2.984c-2.659,-1.913 -4.553,-4.582 -5.682,-8.006c-1.128,-3.424 -1.463,-7.45 -1.004,-12.08l6.714,-40.171l13.601,0l-6.772,40.343c-0.153,1.416 -0.172,2.793 -0.057,4.132c0.383,4.744 2.774,7.212 7.173,7.403c6.007,0.23 10.866,-2.18 14.577,-7.231l7.804,-44.647l13.601,0l-10.731,62.093l-12.74,0l1.205,-6.14Z" style="fill:#800000;fill-rule:nonzero;"/><path d="M1028.55,620.242c-1.76,-0.382 -3.539,-0.574 -5.337,-0.574c-5.968,-0.153 -10.712,2.315 -14.232,7.403l-7.46,42.524l-13.601,0l10.731,-62.093l12.912,-0.057l-1.377,7.059c4.247,-5.624 9.144,-8.379 14.691,-8.264c1.263,0 3.003,0.287 5.222,0.861l-1.549,13.141Z" style="fill:#800000;fill-rule:nonzero;"/><path d="M1091.39,586.04l12.223,63.929l34.375,-63.929l18.593,0l-14.461,83.555l-14.117,0l4.877,-28.292l7.403,-34.834l-34.432,63.126l-10.215,0l-12.797,-65.019l-5.222,38.219l-4.649,26.8l-14.117,0l14.519,-83.555l18.02,0Z" style="fill:#800000;fill-rule:nonzero;"/><path d="M1161.17,638.319c0.651,-6.083 2.439,-11.611 5.366,-16.585c2.927,-4.973 6.685,-8.818 11.276,-11.534c4.591,-2.717 9.68,-3.998 15.265,-3.845c5.318,0.076 9.909,1.492 13.773,4.246c3.864,2.755 6.686,6.523 8.465,11.306c1.779,4.782 2.4,10.1 1.865,15.953c-0.612,6.58 -2.401,12.396 -5.366,17.446c-2.965,5.05 -6.752,8.923 -11.362,11.621c-4.611,2.697 -9.728,3.969 -15.351,3.816c-5.28,-0.077 -9.842,-1.483 -13.687,-4.218c-3.845,-2.736 -6.667,-6.485 -8.465,-11.248c-1.798,-4.763 -2.448,-10.014 -1.951,-15.753l0.172,-1.205Zm13.371,7.862c0.192,4.017 1.253,7.241 3.185,9.67c1.932,2.429 4.62,3.701 8.063,3.816c4.668,0.115 8.58,-1.683 11.736,-5.394c3.156,-3.711 5.136,-8.78 5.939,-15.208l0.345,-5.624c0,-4.897 -0.976,-8.742 -2.927,-11.534c-1.951,-2.793 -4.782,-4.266 -8.493,-4.419c-5.816,-0.153 -10.406,2.697 -13.773,8.55c-2.028,3.558 -3.309,7.652 -3.845,12.281c-0.306,3.214 -0.383,5.835 -0.23,7.862Z" style="fill:#800000;fill-rule:nonzero;"/><path d="M1246.96,651.748l19.626,-44.246l14.519,0l-30.587,62.093l-11.822,0l-11.363,-62.093l13.658,0l5.969,44.246Z" style="fill:#800000;fill-rule:nonzero;"/><path d="M1306.88,670.743c-5.395,-0.115 -10.072,-1.473 -14.031,-4.075c-3.96,-2.601 -6.887,-6.159 -8.781,-10.674c-1.893,-4.514 -2.611,-9.545 -2.152,-15.092l0.172,-2.353c0.689,-6.313 2.535,-11.985 5.538,-17.015c3.004,-5.031 6.743,-8.848 11.219,-11.449c4.477,-2.602 9.335,-3.845 14.577,-3.73c7.766,0.153 13.591,3.046 17.474,8.679c3.883,5.632 5.347,12.971 4.39,22.014l-0.803,5.977l-39.081,0c-0.344,4.918 0.651,8.883 2.984,11.895c2.334,3.012 5.548,4.556 9.641,4.632c5.854,0.192 11.248,-2.352 16.183,-7.632l6.887,7.231c-2.602,3.711 -6.026,6.59 -10.272,8.636c-4.247,2.047 -8.895,3.032 -13.945,2.956Zm5.796,-53.255c-7.193,-0.23 -12.587,4.859 -16.183,15.265l25.766,0.057l0.23,-1.205c0.268,-1.76 0.287,-3.482 0.057,-5.165c-0.421,-2.716 -1.492,-4.859 -3.213,-6.427c-1.722,-1.569 -3.941,-2.41 -6.657,-2.525Z" style="fill:#800000;fill-rule:nonzero;"/><path d="M1359.21,644.976l-11.706,0l8.952,-58.936l14.347,0l-11.593,58.936Zm-16.47,18.249c0,-2.257 0.718,-4.113 2.152,-5.566c1.435,-1.454 3.262,-2.219 5.481,-2.296c2.181,-0.076 4.017,0.593 5.509,2.009c1.492,1.415 2.238,3.213 2.238,5.394c0,2.181 -0.717,3.988 -2.152,5.423c-1.435,1.435 -3.261,2.19 -5.48,2.267c-2.105,0.076 -3.922,-0.564 -5.452,-1.923c-1.53,-1.358 -2.296,-3.127 -2.296,-5.308Z" style="fill:#800000;fill-rule:nonzero;"/><path d="M1393.19,589.942l-5.28,21.578l-7.919,0l4.763,-30.071l9.755,0l-1.319,8.493Zm16.757,0l-5.28,21.578l-7.919,0l4.763,-30.071l9.755,0l-1.319,8.493Z" style="fill:#800000;fill-rule:nonzero;"/></g></svg>