<?xml version="1.0" encoding="UTF-8" standalone="no"?><!DOCTYPE svg PUBLIC "-//W3C//DTD SVG 1.1//EN" "http://www.w3.org/Graphics/SVG/1.1/DTD/svg11.dtd"><svg width="100%" height="100%" viewBox="0 0 1280 76" version="1.1" xmlns="http://www.w3.org/2000/svg" xmlns:xlink="http://www.w3.org/1999/xlink" xml:space="preserve" xmlns:serif="http://www.serif.com/" style="fill-rule:evenodd;clip-rule:evenodd;stroke-linejoin:round;stroke-miterlimit:1.41421;"><g><g id="Strategic"><path id="path4942" d="M30.78,43.952c0,-1.983 -0.708,-3.527 -2.124,-4.635c-1.39,-1.107 -3.849,-2.252 -7.376,-3.437c-3.527,-1.184 -6.411,-2.33 -8.651,-3.437c-7.287,-3.579 -10.93,-8.496 -10.93,-14.753c0,-3.115 0.901,-5.857 2.704,-8.226c1.828,-2.394 4.402,-4.248 7.724,-5.561c3.321,-1.339 7.054,-2.009 11.2,-2.009c4.042,0 7.659,0.721 10.852,2.163c3.218,1.442 5.716,3.502 7.492,6.179c1.777,2.652 2.665,5.69 2.665,9.115l-13.517,0c0,-2.292 -0.708,-4.068 -2.124,-5.33c-1.39,-1.261 -3.283,-1.892 -5.677,-1.892c-2.42,0 -4.339,0.54 -5.755,1.622c-1.39,1.055 -2.085,2.407 -2.085,4.055c0,1.442 0.772,2.755 2.317,3.939c1.545,1.159 4.261,2.369 8.149,3.631c3.888,1.235 7.08,2.574 9.578,4.016c6.076,3.502 9.114,8.329 9.114,14.483c0,4.917 -1.854,8.779 -5.561,11.586c-3.708,2.806 -8.793,4.209 -15.255,4.209c-4.557,0 -8.69,-0.811 -12.397,-2.433c-3.682,-1.647 -6.463,-3.887 -8.342,-6.72c-1.854,-2.858 -2.781,-6.14 -2.781,-9.848l13.594,0c0,3.013 0.773,5.24 2.318,6.682c1.57,1.416 4.106,2.124 7.608,2.124c2.24,0 4.003,-0.477 5.291,-1.429c1.313,-0.979 1.969,-2.343 1.969,-4.094l0,0Z" style="fill-rule:nonzero;"/><path id="path4944" d="M68.95,6.722l0,10.389l6.875,0l0,9.037l-6.875,0l0,19.117c0,1.571 0.284,2.665 0.85,3.283c0.566,0.618 1.686,0.927 3.36,0.927c1.287,0 2.369,-0.078 3.244,-0.232l0,9.308c-2.343,0.746 -4.789,1.119 -7.338,1.119c-4.48,0 -7.788,-1.055 -9.925,-3.166c-2.137,-2.112 -3.206,-5.317 -3.206,-9.617l0,-20.739l-5.329,0l0,-9.037l5.329,0l0,-10.389l13.015,0Z" style="fill-rule:nonzero;"/><path id="path4946" d="M109.283,28.89l-4.287,-0.309c-4.094,0 -6.72,1.287 -7.878,3.862l0,26.455l-13.016,0l0,-41.787l12.204,0l0.425,5.368c2.189,-4.094 5.24,-6.141 9.153,-6.141c1.391,0 2.601,0.155 3.631,0.463l-0.232,12.089Z" style="fill-rule:nonzero;"/><path id="path4948" d="M139.458,58.898c-0.463,-0.85 -0.875,-2.098 -1.235,-3.746c-2.395,3.012 -5.742,4.518 -10.042,4.518c-3.939,0 -7.286,-1.184 -10.041,-3.553c-2.755,-2.394 -4.132,-5.394 -4.132,-8.998c0,-4.532 1.673,-7.956 5.02,-10.273c3.347,-2.317 8.214,-3.476 14.599,-3.476l4.016,0l0,-2.201c0,-3.837 -1.66,-5.755 -4.982,-5.755c-3.089,0 -4.634,1.519 -4.634,4.557l-13.015,0c0,-4.042 1.712,-7.325 5.136,-9.848c3.45,-2.523 7.84,-3.785 13.17,-3.785c5.329,0 9.539,1.301 12.629,3.901c3.089,2.6 4.673,6.166 4.75,10.698l0,18.499c0.051,3.836 0.643,6.771 1.776,8.805l0,0.657l-13.015,0Zm-8.148,-8.496c1.622,0 2.96,-0.348 4.016,-1.043c1.081,-0.695 1.854,-1.481 2.317,-2.356l0,-6.681l-3.785,0c-4.531,0 -6.797,2.034 -6.797,6.102c0,1.184 0.399,2.149 1.198,2.896c0.798,0.721 1.815,1.082 3.051,1.082Z" style="fill-rule:nonzero;"/><path id="path4950" d="M176.122,6.722l0,10.389l6.874,0l0,9.037l-6.874,0l0,19.117c0,1.571 0.283,2.665 0.85,3.283c0.566,0.618 1.686,0.927 3.36,0.927c1.287,0 2.368,-0.078 3.244,-0.232l0,9.308c-2.343,0.746 -4.789,1.119 -7.338,1.119c-4.48,0 -7.788,-1.055 -9.925,-3.166c-2.137,-2.112 -3.206,-5.317 -3.206,-9.617l0,-20.739l-5.33,0l0,-9.037l5.33,0l0,-10.389l13.015,0Z" style="fill-rule:nonzero;"/><path id="path4952" d="M211.395,59.67c-6.411,0 -11.599,-1.905 -15.564,-5.715c-3.965,-3.837 -5.947,-8.819 -5.947,-14.946l0,-1.082c0,-4.274 0.785,-8.046 2.356,-11.316c1.596,-3.269 3.913,-5.793 6.951,-7.569c3.039,-1.802 6.643,-2.704 10.814,-2.704c5.87,0 10.505,1.828 13.903,5.484c3.399,3.631 5.098,8.703 5.098,15.217l0,5.059l-25.875,0c0.463,2.343 1.48,4.184 3.051,5.523c1.57,1.339 3.604,2.008 6.102,2.008c4.119,0 7.338,-1.442 9.655,-4.325l5.947,7.029c-1.622,2.239 -3.926,4.029 -6.913,5.368c-2.961,1.313 -6.153,1.969 -9.578,1.969l0,0Zm-1.467,-33.29c-3.811,0 -6.076,2.523 -6.797,7.569l13.131,0l0,-1.004c0.051,-2.085 -0.477,-3.695 -1.584,-4.827c-1.107,-1.159 -2.69,-1.738 -4.75,-1.738l0,0Z" style="fill-rule:nonzero;"/><path id="path4954" d="M235.778,37.695c0,-4.222 0.695,-7.955 2.085,-11.199c1.391,-3.245 3.386,-5.742 5.987,-7.493c2.6,-1.776 5.625,-2.665 9.075,-2.665c4.352,0 7.75,1.468 10.196,4.403l0.463,-3.63l11.818,0l0,40.204c0,3.681 -0.862,6.874 -2.587,9.577c-1.7,2.73 -4.171,4.815 -7.416,6.257c-3.244,1.467 -7.003,2.201 -11.277,2.201c-3.064,0 -6.037,-0.579 -8.921,-1.738c-2.858,-1.158 -5.046,-2.664 -6.565,-4.518l5.445,-7.647c2.42,2.858 5.613,4.287 9.578,4.287c5.767,0 8.651,-2.961 8.651,-8.883l0,-1.313c-2.498,2.755 -5.652,4.132 -9.462,4.132c-5.098,0 -9.218,-1.944 -12.359,-5.831c-3.141,-3.914 -4.711,-9.14 -4.711,-15.68l0,-0.464Zm13.054,0.811c0,3.425 0.643,6.141 1.931,8.149c1.287,1.983 3.089,2.974 5.406,2.974c2.807,0 4.854,-0.94 6.141,-2.819l0,-17.572c-1.262,-1.906 -3.283,-2.858 -6.063,-2.858c-2.318,0 -4.133,1.042 -5.446,3.128c-1.313,2.06 -1.969,5.059 -1.969,8.998l0,0Z" style="fill-rule:nonzero;"/><path id="path4958" d="M300.556,6.722c-9.018,0 -7.547,9.371 -7.547,9.371c0,0 1.728,1.46 1.031,1.626c-1.553,0.415 -1.645,2.368 -3.716,2.652c-0.464,1.824 0.167,2.022 0.167,2.022c4.444,1.194 4.012,1.395 4.012,1.395c0,0 0.532,2.087 -0.331,8.421c-0.862,6.334 -4.786,9.959 -4.786,9.959c0.68,2.416 0.164,2.979 0.164,2.979c-5.674,4.08 -5.769,6.003 -5.769,6.003c2.908,3.681 -1.681,4.009 -1.681,4.009c-0.663,2.122 1.194,4.509 1.194,4.509l34.374,0l0.011,0.002c0,0 1.855,-2.388 1.187,-4.511c0,0 -4.589,-0.327 -1.681,-4.009c0,0 -0.095,-1.923 -5.769,-6.003c0,0 -0.515,-0.563 0.165,-2.978c0,0 -3.925,-3.623 -4.787,-9.958c-0.862,-6.334 -0.33,-8.423 -0.33,-8.423c0,0 -0.431,-0.2 4.013,-1.395c0,0 0.63,-0.197 0.166,-2.022c-2.072,-0.284 -2.163,-2.237 -3.717,-2.652c-0.696,-0.166 1.029,-1.626 1.029,-1.626c0,0 1.624,-9.371 -7.395,-9.371l-0.004,0Z" style="fill-rule:nonzero;"/><path id="path4956" d="M345.093,49.629c1.828,0 3.244,-0.489 4.248,-1.467c1.004,-1.005 1.493,-2.395 1.467,-4.171l12.204,0c0,4.582 -1.647,8.342 -4.943,11.277c-3.27,2.935 -7.492,4.402 -12.667,4.402c-6.077,0 -10.866,-1.905 -14.367,-5.715c-3.502,-3.811 -5.253,-9.089 -5.253,-15.835l0,-0.54c0,-4.223 0.773,-7.943 2.318,-11.162c1.57,-3.244 3.823,-5.728 6.758,-7.453c2.935,-1.751 6.411,-2.627 10.428,-2.627c5.432,0 9.745,1.507 12.938,4.519c3.192,3.012 4.788,7.093 4.788,12.243l-12.204,0c0,-2.163 -0.527,-3.824 -1.583,-4.982c-1.056,-1.159 -2.472,-1.738 -4.248,-1.738c-3.373,0 -5.343,2.15 -5.909,6.449c-0.18,1.365 -0.271,3.244 -0.271,5.639c0,4.197 0.503,7.106 1.507,8.728c1.004,1.622 2.6,2.433 4.789,2.433l0,0Z" style="fill-rule:nonzero;"/></g><g id="Business-Consulting-Inc." serif:id="Business Consulting Inc."><path d="M387.872,59.5l0,-56.393l19.753,0c6.842,0 12.032,1.311 15.57,3.932c3.537,2.62 5.306,6.461 5.306,11.522c0,2.763 -0.71,5.197 -2.13,7.301c-1.42,2.104 -3.396,3.647 -5.926,4.628c2.892,0.723 5.17,2.182 6.836,4.377c1.665,2.195 2.498,4.88 2.498,8.056c0,5.423 -1.73,9.528 -5.19,12.317c-3.46,2.789 -8.392,4.209 -14.795,4.26l-21.922,0Zm11.619,-24.555l0,15.221l9.954,0c2.737,0 4.874,-0.652 6.41,-1.956c1.536,-1.304 2.305,-3.105 2.305,-5.403c0,-5.164 -2.673,-7.785 -8.018,-7.862l-10.651,0Zm0,-8.212l8.598,0c5.862,-0.103 8.792,-2.44 8.792,-7.01c0,-2.556 -0.742,-4.396 -2.227,-5.519c-1.484,-1.123 -3.828,-1.685 -7.029,-1.685l-8.134,0l0,14.214Z" style="fill:#800000;fill-rule:nonzero;"/><path d="M463.751,55.24c-2.763,3.357 -6.584,5.035 -11.464,5.035c-4.493,0 -7.921,-1.291 -10.284,-3.873c-2.362,-2.582 -3.569,-6.365 -3.621,-11.348l0,-27.461l11.193,0l0,27.105c0,4.368 1.989,6.553 5.965,6.553c3.796,0 6.404,-1.319 7.824,-3.956l0,-29.702l11.232,0l0,41.907l-10.535,0l-0.31,-4.26Z" style="fill:#800000;fill-rule:nonzero;"/><path d="M506.631,47.92c0,-1.369 -0.677,-2.447 -2.033,-3.234c-1.356,-0.788 -3.531,-1.492 -6.526,-2.111c-9.967,-2.092 -14.951,-6.326 -14.951,-12.704c0,-3.718 1.543,-6.823 4.629,-9.315c3.085,-2.492 7.12,-3.738 12.103,-3.738c5.319,0 9.573,1.253 12.762,3.757c3.189,2.505 4.784,5.758 4.784,9.761l-11.194,0c0,-1.601 -0.516,-2.925 -1.549,-3.97c-1.033,-1.046 -2.647,-1.569 -4.841,-1.569c-1.885,0 -3.344,0.426 -4.377,1.278c-1.033,0.852 -1.549,1.937 -1.549,3.254c0,1.239 0.587,2.239 1.762,3.001c1.175,0.762 3.157,1.42 5.945,1.976c2.789,0.555 5.139,1.181 7.049,1.878c5.913,2.169 8.87,5.926 8.87,11.271c0,3.821 -1.64,6.913 -4.919,9.276c-3.279,2.363 -7.514,3.544 -12.704,3.544c-3.512,0 -6.63,-0.626 -9.354,-1.878c-2.724,-1.253 -4.86,-2.97 -6.41,-5.152c-1.549,-2.182 -2.324,-4.538 -2.324,-7.068l10.613,0c0.103,1.988 0.839,3.511 2.208,4.57c1.368,1.059 3.201,1.588 5.499,1.588c2.144,0 3.764,-0.407 4.861,-1.22c1.098,-0.813 1.646,-1.878 1.646,-3.195Z" style="fill:#800000;fill-rule:nonzero;"/><path d="M537.427,59.5l-11.232,0l0,-41.907l11.232,0l0,41.907Zm-11.89,-52.752c0,-1.678 0.561,-3.06 1.685,-4.144c1.123,-1.085 2.653,-1.627 4.589,-1.627c1.911,0 3.434,0.542 4.571,1.627c1.136,1.084 1.704,2.466 1.704,4.144c0,1.704 -0.575,3.099 -1.724,4.183c-1.149,1.085 -2.666,1.627 -4.551,1.627c-1.885,0 -3.402,-0.542 -4.551,-1.627c-1.149,-1.084 -1.723,-2.479 -1.723,-4.183Z" style="fill:#800000;fill-rule:nonzero;"/><path d="M557.843,17.593l0.349,4.841c2.995,-3.744 7.01,-5.616 12.045,-5.616c4.442,0 7.747,1.304 9.916,3.912c2.169,2.608 3.279,6.507 3.331,11.697l0,27.073l-11.194,0l0,-26.802c0,-2.375 -0.516,-4.099 -1.549,-5.171c-1.033,-1.071 -2.75,-1.607 -5.151,-1.607c-3.151,0 -5.513,1.343 -7.088,4.028l0,29.552l-11.194,0l0,-41.907l10.535,0Z" style="fill:#800000;fill-rule:nonzero;"/><path d="M612.149,60.275c-6.145,0 -11.148,-1.885 -15.008,-5.655c-3.86,-3.77 -5.79,-8.792 -5.79,-15.066l0,-1.085c0,-4.209 0.813,-7.972 2.44,-11.29c1.626,-3.318 3.931,-5.874 6.913,-7.669c2.983,-1.794 6.384,-2.692 10.206,-2.692c5.732,0 10.244,1.808 13.537,5.423c3.292,3.615 4.938,8.74 4.938,15.376l0,4.57l-26.686,0c0.361,2.737 1.452,4.932 3.273,6.585c1.82,1.652 4.125,2.479 6.913,2.479c4.312,0 7.682,-1.563 10.109,-4.687l5.5,6.158c-1.678,2.376 -3.951,4.229 -6.817,5.558c-2.866,1.33 -6.042,1.995 -9.528,1.995Zm-1.278,-34.432c-2.22,0 -4.021,0.752 -5.403,2.256c-1.381,1.504 -2.266,3.657 -2.653,6.458l15.57,0l0,-0.895c-0.051,-2.49 -0.723,-4.415 -2.014,-5.777c-1.291,-1.361 -3.124,-2.042 -5.5,-2.042Z" style="fill:#800000;fill-rule:nonzero;"/><path d="M659.329,47.92c0,-1.369 -0.678,-2.447 -2.034,-3.234c-1.355,-0.788 -3.531,-1.492 -6.526,-2.111c-9.967,-2.092 -14.95,-6.326 -14.95,-12.704c0,-3.718 1.543,-6.823 4.628,-9.315c3.086,-2.492 7.12,-3.738 12.104,-3.738c5.319,0 9.573,1.253 12.762,3.757c3.189,2.505 4.783,5.758 4.783,9.761l-11.193,0c0,-1.601 -0.517,-2.925 -1.549,-3.97c-1.033,-1.046 -2.647,-1.569 -4.842,-1.569c-1.885,0 -3.344,0.426 -4.377,1.278c-1.032,0.852 -1.549,1.937 -1.549,3.254c0,1.239 0.588,2.239 1.762,3.001c1.175,0.762 3.157,1.42 5.946,1.976c2.788,0.555 5.138,1.181 7.049,1.878c5.913,2.169 8.869,5.926 8.869,11.271c0,3.821 -1.639,6.913 -4.918,9.276c-3.28,2.363 -7.514,3.544 -12.704,3.544c-3.512,0 -6.63,-0.626 -9.354,-1.878c-2.724,-1.253 -4.861,-2.97 -6.41,-5.152c-1.549,-2.182 -2.324,-4.538 -2.324,-7.068l10.612,0c0.104,1.988 0.84,3.511 2.208,4.57c1.369,1.059 3.202,1.588 5.5,1.588c2.143,0 3.763,-0.407 4.861,-1.22c1.097,-0.813 1.646,-1.878 1.646,-3.195Z" style="fill:#800000;fill-rule:nonzero;"/><path d="M701.008,47.92c0,-1.369 -0.677,-2.447 -2.033,-3.234c-1.356,-0.788 -3.531,-1.492 -6.526,-2.111c-9.967,-2.092 -14.951,-6.326 -14.951,-12.704c0,-3.718 1.543,-6.823 4.629,-9.315c3.085,-2.492 7.12,-3.738 12.103,-3.738c5.32,0 9.574,1.253 12.762,3.757c3.189,2.505 4.784,5.758 4.784,9.761l-11.194,0c0,-1.601 -0.516,-2.925 -1.549,-3.97c-1.033,-1.046 -2.647,-1.569 -4.841,-1.569c-1.885,0 -3.344,0.426 -4.377,1.278c-1.033,0.852 -1.549,1.937 -1.549,3.254c0,1.239 0.587,2.239 1.762,3.001c1.175,0.762 3.157,1.42 5.945,1.976c2.789,0.555 5.139,1.181 7.049,1.878c5.913,2.169 8.87,5.926 8.87,11.271c0,3.821 -1.64,6.913 -4.919,9.276c-3.279,2.363 -7.514,3.544 -12.704,3.544c-3.512,0 -6.629,-0.626 -9.354,-1.878c-2.724,-1.253 -4.86,-2.97 -6.41,-5.152c-1.549,-2.182 -2.323,-4.538 -2.323,-7.068l10.612,0c0.103,1.988 0.839,3.511 2.208,4.57c1.368,1.059 3.201,1.588 5.5,1.588c2.143,0 3.763,-0.407 4.86,-1.22c1.098,-0.813 1.646,-1.878 1.646,-3.195Z" style="fill:#800000;fill-rule:nonzero;"/><path d="M785.646,40.716c-0.439,6.068 -2.679,10.844 -6.72,14.33c-4.041,3.486 -9.367,5.229 -15.977,5.229c-7.23,0 -12.917,-2.434 -17.061,-7.301c-4.144,-4.867 -6.217,-11.548 -6.217,-20.043l0,-3.448c0,-5.422 0.956,-10.199 2.867,-14.33c1.91,-4.132 4.641,-7.301 8.191,-9.509c3.551,-2.208 7.676,-3.311 12.375,-3.311c6.507,0 11.749,1.743 15.725,5.228c3.976,3.486 6.275,8.379 6.894,14.68l-11.619,0c-0.284,-3.641 -1.298,-6.281 -3.041,-7.921c-1.743,-1.64 -4.396,-2.459 -7.959,-2.459c-3.873,0 -6.772,1.387 -8.695,4.163c-1.924,2.776 -2.912,7.082 -2.963,12.917l0,4.261c0,6.093 0.923,10.548 2.769,13.362c1.846,2.815 4.758,4.222 8.734,4.222c3.589,0 6.268,-0.82 8.037,-2.46c1.769,-1.639 2.782,-4.176 3.04,-7.61l11.62,0Z" style="fill:#800000;fill-rule:nonzero;"/><path d="M791.692,38.159c0,-4.157 0.801,-7.862 2.402,-11.116c1.601,-3.253 3.905,-5.771 6.913,-7.552c3.008,-1.782 6.501,-2.673 10.477,-2.673c5.655,0 10.27,1.73 13.847,5.19c3.576,3.46 5.571,8.16 5.984,14.099l0.077,2.866c0,6.429 -1.794,11.587 -5.384,15.473c-3.589,3.886 -8.404,5.829 -14.446,5.829c-6.043,0 -10.865,-1.937 -14.467,-5.81c-3.602,-3.873 -5.403,-9.14 -5.403,-15.802l0,-0.504Zm11.194,0.795c0,3.982 0.749,7.027 2.246,9.135c1.498,2.108 3.641,3.162 6.43,3.162c2.711,0 4.828,-1.041 6.352,-3.123c1.523,-2.082 2.285,-5.411 2.285,-9.989c0,-3.905 -0.762,-6.93 -2.285,-9.077c-1.524,-2.146 -3.667,-3.219 -6.43,-3.219c-2.737,0 -4.854,1.066 -6.352,3.2c-1.497,2.133 -2.246,5.437 -2.246,9.911Z" style="fill:#800000;fill-rule:nonzero;"/><path d="M849.484,17.593l0.349,4.841c2.995,-3.744 7.01,-5.616 12.045,-5.616c4.442,0 7.747,1.304 9.916,3.912c2.169,2.608 3.279,6.507 3.331,11.697l0,27.073l-11.194,0l0,-26.802c0,-2.375 -0.516,-4.099 -1.549,-5.171c-1.033,-1.071 -2.75,-1.607 -5.151,-1.607c-3.151,0 -5.513,1.343 -7.088,4.028l0,29.552l-11.194,0l0,-41.907l10.535,0Z" style="fill:#800000;fill-rule:nonzero;"/><path d="M907.199,47.92c0,-1.369 -0.678,-2.447 -2.034,-3.234c-1.355,-0.788 -3.531,-1.492 -6.526,-2.111c-9.967,-2.092 -14.95,-6.326 -14.95,-12.704c0,-3.718 1.542,-6.823 4.628,-9.315c3.086,-2.492 7.12,-3.738 12.104,-3.738c5.319,0 9.573,1.253 12.762,3.757c3.189,2.505 4.783,5.758 4.783,9.761l-11.193,0c0,-1.601 -0.517,-2.925 -1.55,-3.97c-1.032,-1.046 -2.646,-1.569 -4.841,-1.569c-1.885,0 -3.344,0.426 -4.377,1.278c-1.033,0.852 -1.549,1.937 -1.549,3.254c0,1.239 0.587,2.239 1.762,3.001c1.175,0.762 3.157,1.42 5.946,1.976c2.788,0.555 5.138,1.181 7.049,1.878c5.913,2.169 8.869,5.926 8.869,11.271c0,3.821 -1.639,6.913 -4.919,9.276c-3.279,2.363 -7.514,3.544 -12.704,3.544c-3.511,0 -6.629,-0.626 -9.353,-1.878c-2.724,-1.253 -4.861,-2.97 -6.41,-5.152c-1.55,-2.182 -2.324,-4.538 -2.324,-7.068l10.612,0c0.103,1.988 0.839,3.511 2.208,4.57c1.368,1.059 3.202,1.588 5.5,1.588c2.143,0 3.763,-0.407 4.861,-1.22c1.097,-0.813 1.646,-1.878 1.646,-3.195Z" style="fill:#800000;fill-rule:nonzero;"/><path d="M951.28,55.24c-2.763,3.357 -6.585,5.035 -11.465,5.035c-4.493,0 -7.921,-1.291 -10.283,-3.873c-2.363,-2.582 -3.57,-6.365 -3.622,-11.348l0,-27.461l11.194,0l0,27.105c0,4.368 1.988,6.553 5.965,6.553c3.795,0 6.403,-1.319 7.823,-3.956l0,-29.702l11.232,0l0,41.907l-10.535,0l-0.309,-4.26Z" style="fill:#800000;fill-rule:nonzero;"/><rect x="972.044" y="0.009" width="11.232" height="59.492" style="fill:#800000;fill-rule:nonzero;"/><path d="M1006.79,7.29l0,10.303l7.165,0l0,8.211l-7.165,0l0,20.915c0,1.549 0.297,2.66 0.891,3.331c0.594,0.671 1.73,1.007 3.408,1.007c1.239,0 2.337,-0.09 3.292,-0.271l0,8.482c-2.195,0.671 -4.454,1.007 -6.778,1.007c-7.849,0 -11.852,-3.964 -12.007,-11.891l0,-22.58l-6.119,0l0,-8.211l6.119,0l0,-10.303l11.194,0Z" style="fill:#800000;fill-rule:nonzero;"/><path d="M1032.9,59.5l-11.232,0l0,-41.907l11.232,0l0,41.907Zm-11.89,-52.752c0,-1.678 0.561,-3.06 1.685,-4.144c1.123,-1.085 2.653,-1.627 4.589,-1.627c1.911,0 3.434,0.542 4.571,1.627c1.136,1.084 1.704,2.466 1.704,4.144c0,1.704 -0.575,3.099 -1.724,4.183c-1.149,1.085 -2.666,1.627 -4.551,1.627c-1.885,0 -3.402,-0.542 -4.551,-1.627c-1.149,-1.084 -1.723,-2.479 -1.723,-4.183Z" style="fill:#800000;fill-rule:nonzero;"/><path d="M1053.32,17.593l0.349,4.841c2.995,-3.744 7.01,-5.616 12.045,-5.616c4.442,0 7.747,1.304 9.916,3.912c2.169,2.608 3.279,6.507 3.331,11.697l0,27.073l-11.194,0l0,-26.802c0,-2.375 -0.516,-4.099 -1.549,-5.171c-1.033,-1.071 -2.75,-1.607 -5.151,-1.607c-3.151,0 -5.513,1.343 -7.088,4.028l0,29.552l-11.194,0l0,-41.907l10.535,0Z" style="fill:#800000;fill-rule:nonzero;"/><path d="M1086.71,38.237c0,-6.43 1.53,-11.607 4.59,-15.532c3.06,-3.924 7.185,-5.887 12.375,-5.887c4.596,0 8.172,1.575 10.728,4.725l0.465,-3.95l10.148,0l0,40.513c0,3.667 -0.833,6.856 -2.498,9.567c-1.666,2.711 -4.009,4.777 -7.03,6.197c-3.021,1.42 -6.559,2.13 -10.613,2.13c-3.072,0 -6.067,-0.613 -8.985,-1.84c-2.918,-1.226 -5.126,-2.808 -6.623,-4.744l4.957,-6.817c2.789,3.124 6.171,4.686 10.148,4.686c2.969,0 5.28,-0.794 6.933,-2.382c1.652,-1.588 2.479,-3.84 2.479,-6.758l0,-2.247c-2.582,2.918 -5.978,4.377 -10.187,4.377c-5.035,0 -9.108,-1.969 -12.219,-5.907c-3.112,-3.937 -4.668,-9.16 -4.668,-15.666l0,-0.465Zm11.194,0.833c0,3.802 0.761,6.782 2.285,8.942c1.523,2.159 3.615,3.239 6.274,3.239c3.409,0 5.849,-1.281 7.321,-3.841l0,-17.649c-1.498,-2.561 -3.912,-3.841 -7.243,-3.841c-2.685,0 -4.796,1.099 -6.333,3.297c-1.536,2.199 -2.304,5.483 -2.304,9.853Z" style="fill:#800000;fill-rule:nonzero;"/><rect x="1156.63" y="3.107" width="11.619" height="56.393" style="fill:#800000;fill-rule:nonzero;"/><path d="M1189.48,17.593l0.349,4.841c2.995,-3.744 7.01,-5.616 12.046,-5.616c4.441,0 7.746,1.304 9.915,3.912c2.169,2.608 3.279,6.507 3.331,11.697l0,27.073l-11.194,0l0,-26.802c0,-2.375 -0.516,-4.099 -1.549,-5.171c-1.033,-1.071 -2.75,-1.607 -5.151,-1.607c-3.15,0 -5.513,1.343 -7.088,4.028l0,29.552l-11.193,0l0,-41.907l10.534,0Z" style="fill:#800000;fill-rule:nonzero;"/><path d="M1241.92,51.251c2.066,0 3.744,-0.569 5.036,-1.705c1.291,-1.136 1.962,-2.646 2.014,-4.531l10.496,0c-0.026,2.84 -0.801,5.442 -2.324,7.804c-1.524,2.363 -3.609,4.196 -6.255,5.5c-2.647,1.304 -5.571,1.956 -8.773,1.956c-5.99,0 -10.716,-1.904 -14.176,-5.713c-3.46,-3.809 -5.19,-9.07 -5.19,-15.783l0,-0.736c0,-6.455 1.717,-11.606 5.152,-15.454c3.434,-3.847 8.146,-5.771 14.137,-5.771c5.241,0 9.444,1.491 12.607,4.474c3.163,2.982 4.77,6.952 4.822,11.91l-10.496,0c-0.052,-2.181 -0.723,-3.952 -2.014,-5.315c-1.292,-1.363 -2.996,-2.044 -5.113,-2.044c-2.608,0 -4.577,0.95 -5.907,2.851c-1.329,1.9 -1.994,4.984 -1.994,9.251l0,1.164c0,4.319 0.658,7.422 1.975,9.31c1.317,1.888 3.318,2.832 6.003,2.832Z" style="fill:#800000;fill-rule:nonzero;"/><path d="M1267.34,54c0,-1.781 0.6,-3.227 1.801,-4.337c1.2,-1.111 2.705,-1.666 4.512,-1.666c1.833,0 3.35,0.555 4.551,1.666c1.201,1.11 1.801,2.556 1.801,4.337c0,1.756 -0.594,3.183 -1.782,4.28c-1.187,1.098 -2.711,1.646 -4.57,1.646c-1.833,0 -3.344,-0.548 -4.532,-1.646c-1.187,-1.097 -1.781,-2.524 -1.781,-4.28Z" style="fill:#800000;fill-rule:nonzero;"/></g></g></svg>